<svg>
<path d="M9.41325 3.33333L10.6333 4.66667H13.3333V12.6667H2.66659V4.66667H5.36659L6.58659 3.33333H9.41325ZM9.99992 2H5.99992L4.77992 3.33333H2.66659C1.93325 3.33333 1.33325 3.93333 1.33325 4.66667V12.6667C1.33325 13.4 1.93325 14 2.66659 14H13.3333C14.0666 14 14.6666 13.4 14.6666 12.6667V4.66667C14.6666 3.93333 14.0666 3.33333 13.3333 3.33333H11.2199L9.99992 2ZM7.99992 6.66667C9.09992 6.66667 9.99992 7.56667 9.99992 8.66667C9.99992 9.76667 9.09992 10.6667 7.99992 10.6667C6.89992 10.6667 5.99992 9.76667 5.99992 8.66667C5.99992 7.56667 6.89992 6.66667 7.99992 6.66667ZM7.99992 5.33333C6.15992 5.33333 4.66659 6.82667 4.66659 8.66667C4.66659 10.5067 6.15992 12 7.99992 12C9.83992 12 11.3333 10.5067 11.3333 8.66667C11.3333 6.82667 9.83992 5.33333 7.99992 5.33333Z"/>
</svg>
