<svg>
<path d="M13.3333 1.33301H2.66659C1.99992 1.33301 1.33325 1.93301 1.33325 2.66634V4.67301C1.33325 5.15301 1.61992 5.56634 1.99992 5.79967V13.333C1.99992 14.0663 2.73325 14.6663 3.33325 14.6663H12.6666C13.2666 14.6663 13.9999 14.0663 13.9999 13.333V5.79967C14.3799 5.56634 14.6666 5.15301 14.6666 4.67301V2.66634C14.6666 1.93301 13.9999 1.33301 13.3333 1.33301ZM12.6666 13.333H3.33325V5.99967H12.6666V13.333ZM13.3333 4.66634H2.66659V2.66634H13.3333V4.66634Z"/>
<path d="M9.99992 7.99967H5.99992V9.33301H9.99992V7.99967Z"/>
</svg>
