<svg width="16" height="16" viewBox="0 0 16 16" fill="none" xmlns="http://www.w3.org/2000/svg">
<path d="M2.83325 7C2.27992 7 1.83325 7.44667 1.83325 8C1.83325 8.55333 2.27992 9 2.83325 9C3.38659 9 3.83325 8.55333 3.83325 8C3.83325 7.44667 3.38659 7 2.83325 7ZM2.83325 3C2.27992 3 1.83325 3.44667 1.83325 4C1.83325 4.55333 2.27992 5 2.83325 5C3.38659 5 3.83325 4.55333 3.83325 4C3.83325 3.44667 3.38659 3 2.83325 3ZM2.83325 11C2.27992 11 1.83325 11.4533 1.83325 12C1.83325 12.5467 2.28659 13 2.83325 13C3.37992 13 3.83325 12.5467 3.83325 12C3.83325 11.4533 3.38659 11 2.83325 11ZM4.83325 12.6667H14.1666V11.3333H4.83325V12.6667ZM4.83325 8.66667H14.1666V7.33333H4.83325V8.66667ZM4.83325 3.33333V4.66667H14.1666V3.33333H4.83325Z" fill="url(#paint0_linear_145_5211)"/>
<defs>
<linearGradient id="paint0_linear_145_5211" x1="1.83325" y1="3" x2="15.2564" y2="4.77966" gradientUnits="userSpaceOnUse">
<stop stop-color="#127FFF"/>
<stop offset="1" stop-color="#69A6FF"/>
</linearGradient>
</defs>
</svg>
