<svg>
<path d="M13.3333 11.3337H2.66659V3.33366H9.39992C9.34659 3.07366 9.27992 2.59366 9.39992 2.00033H2.66659C1.93325 2.00033 1.33325 2.60033 1.33325 3.33366V15.3337L3.99992 12.667H13.3333C14.0666 12.667 14.6666 12.067 14.6666 11.3337V5.32033C14.2799 5.61366 13.8266 5.83366 13.3333 5.93366V11.3337Z"/>
<path d="M12.6666 4.66699C13.7712 4.66699 14.6666 3.77156 14.6666 2.66699C14.6666 1.56242 13.7712 0.666992 12.6666 0.666992C11.562 0.666992 10.6666 1.56242 10.6666 2.66699C10.6666 3.77156 11.562 4.66699 12.6666 4.66699Z"/>
<path d="M9.33325 8.66699H3.99992V10.0003H9.33325V8.66699Z"/>
<path d="M11.9999 6.66699H3.99992V8.00033H11.9999V6.66699Z"/>
<path d="M3.99992 6.00033H11.9999V5.93366C11.1933 5.76699 10.4999 5.30033 10.0199 4.66699H3.99992V6.00033Z"/>
</svg>
