<svg>
<path d="M12.9547 8.65301C12.9814 8.43967 13.0014 8.22634 13.0014 7.99967C13.0014 7.77301 12.9814 7.55967 12.9547 7.34634L14.3614 6.24634C14.488 6.14634 14.5214 5.96634 14.4414 5.81967L13.108 3.51301C13.048 3.40634 12.9347 3.34634 12.8147 3.34634C12.7747 3.34634 12.7347 3.35301 12.7014 3.36634L11.0414 4.03301C10.6947 3.76634 10.3214 3.54634 9.91469 3.37967L9.66136 1.61301C9.64136 1.45301 9.50136 1.33301 9.33469 1.33301H6.66802C6.50136 1.33301 6.36136 1.45301 6.34136 1.61301L6.08802 3.37967C5.68136 3.54634 5.30802 3.77301 4.96136 4.03301L3.30136 3.36634C3.26136 3.35301 3.22136 3.34634 3.18136 3.34634C3.06802 3.34634 2.95469 3.40634 2.89469 3.51301L1.56136 5.81967C1.47469 5.96634 1.51469 6.14634 1.64136 6.24634L3.04802 7.34634C3.02136 7.55967 3.00136 7.77967 3.00136 7.99967C3.00136 8.21967 3.02136 8.43967 3.04802 8.65301L1.64136 9.75301C1.51469 9.85301 1.48136 10.033 1.56136 10.1797L2.89469 12.4863C2.95469 12.593 3.06802 12.653 3.18802 12.653C3.22802 12.653 3.26802 12.6463 3.30136 12.633L4.96136 11.9663C5.30802 12.233 5.68136 12.453 6.08802 12.6197L6.34136 14.3863C6.36136 14.5463 6.50136 14.6663 6.66802 14.6663H9.33469C9.50136 14.6663 9.64136 14.5463 9.66136 14.3863L9.91469 12.6197C10.3214 12.453 10.6947 12.2263 11.0414 11.9663L12.7014 12.633C12.7414 12.6463 12.7814 12.653 12.8214 12.653C12.9347 12.653 13.048 12.593 13.108 12.4863L14.4414 10.1797C14.5214 10.033 14.488 9.85301 14.3614 9.75301L12.9547 8.65301ZM11.6347 7.51301C11.6614 7.71967 11.668 7.85967 11.668 7.99967C11.668 8.13967 11.6547 8.28634 11.6347 8.48634L11.5414 9.23967L12.1347 9.70634L12.8547 10.2663L12.388 11.073L11.5414 10.733L10.848 10.453L10.248 10.9063C9.96136 11.1197 9.68802 11.2797 9.41469 11.393L8.70803 11.6797L8.60136 12.433L8.46802 13.333H7.53469L7.30136 11.6797L6.59469 11.393C6.30802 11.273 6.04136 11.1197 5.77469 10.9197L5.16802 10.453L4.46136 10.7397L3.61469 11.0797L3.14802 10.273L3.86802 9.71301L4.46136 9.24634L4.36802 8.49301C4.34802 8.28634 4.33469 8.13301 4.33469 7.99967C4.33469 7.86634 4.34802 7.71301 4.36802 7.51301L4.46136 6.75967L3.86802 6.29301L3.14802 5.73301L3.61469 4.92634L4.46136 5.26634L5.15469 5.54634L5.75469 5.09301C6.04136 4.87967 6.31469 4.71967 6.58802 4.60634L7.29469 4.31967L7.40136 3.56634L7.53469 2.66634H8.46136L8.69469 4.31967L9.40136 4.60634C9.68803 4.72634 9.95469 4.87967 10.2214 5.07967L10.828 5.54634L11.5347 5.25967L12.3814 4.91967L12.848 5.72634L12.1347 6.29301L11.5414 6.75967L11.6347 7.51301ZM8.00136 5.33301C6.52802 5.33301 5.33469 6.52634 5.33469 7.99967C5.33469 9.47301 6.52802 10.6663 8.00136 10.6663C9.47469 10.6663 10.668 9.47301 10.668 7.99967C10.668 6.52634 9.47469 5.33301 8.00136 5.33301ZM8.00136 9.33301C7.26802 9.33301 6.66802 8.73301 6.66802 7.99967C6.66802 7.26634 7.26802 6.66634 8.00136 6.66634C8.73469 6.66634 9.33469 7.26634 9.33469 7.99967C9.33469 8.73301 8.73469 9.33301 8.00136 9.33301Z"/>
</svg>
