<svg width="32" height="32" viewBox="0 0 32 32" fill="none" xmlns="http://www.w3.org/2000/svg">
<g clip-path="url(#clip0_185_3852)">
<path d="M31.6676 21.9543C32.1152 21.1831 32.1108 20.2258 31.6543 19.459C31.2598 18.7942 30.5817 18.3598 29.8283 18.2668C30.1385 17.5488 30.0898 16.7155 29.6865 16.0329C29.2344 15.2706 28.4056 14.8097 27.5235 14.8229H27.4836V6.38872C27.4881 6.35323 27.4925 6.31782 27.4925 6.27792C27.4925 6.23801 27.4881 6.1981 27.4836 6.15828V2.6923C27.4836 1.87236 26.8144 1.20312 25.9945 1.20312H14.236C13.416 1.20312 12.7468 1.86794 12.7468 2.6923L12.7424 6.19369C12.738 6.22026 12.738 6.25134 12.738 6.27792C12.738 6.30008 12.738 6.32665 12.7424 6.34881L12.7336 12.7223C12.2548 12.7532 11.7762 12.7976 11.3019 12.864C10.9208 12.9172 10.5573 13.0679 10.2516 13.3028C9.12578 14.1627 8.19944 15.2043 7.49922 16.3965C7.36626 16.6181 7.11807 16.7644 6.86539 16.7644H5.90807C5.77069 16.0863 5.16794 15.5722 4.44988 15.5722H1.48918C0.669235 15.5721 0 16.2414 0 17.0613V26.8164C0 27.6364 0.669235 28.3056 1.48918 28.3056H4.44988C5.10137 28.3056 5.65538 27.889 5.85483 27.304L8.35015 28.9616C8.83769 29.2896 9.40945 29.4625 9.99887 29.4625L12.7556 29.4758C12.8443 30.2115 13.4736 30.7877 14.236 30.7877H17.6886C17.7241 30.7921 17.7639 30.7965 17.7994 30.7965H17.8038C17.8393 30.7965 17.8747 30.7921 17.9102 30.7877H22.3114C22.3469 30.7921 22.3823 30.7965 22.4222 30.7965H22.4266C22.4665 30.7965 22.5019 30.7921 22.5418 30.7877H25.99C26.81 30.7877 27.4792 30.1185 27.4792 29.2985V26.4885H29.0216C29.0305 26.4885 29.0438 26.4885 29.0526 26.4885C29.9125 26.453 30.6969 25.9523 31.0914 25.1855C31.4903 24.4187 31.446 23.4924 30.9806 22.7655C30.9718 22.7522 30.9629 22.739 30.954 22.7256C31.2421 22.5305 31.4859 22.2691 31.6676 21.9543ZM4.43213 26.8075H1.50693V26.8031V17.0835H4.43213V26.8075ZM14.2537 2.71005H16.9617C16.6603 4.05744 15.5966 5.12556 14.2493 5.4314L14.2537 2.71005ZM13.0438 19.5566C12.9907 19.5921 12.9463 19.6364 12.9064 19.6851C11.9136 20.5715 10.5707 21.0458 9.16127 20.9128C8.74463 20.8729 8.38123 21.1787 8.34133 21.5909C8.30142 22.0032 8.60725 22.371 9.01948 22.4109C9.22334 22.4286 9.4272 22.4375 9.63115 22.4375C10.7436 22.4375 11.8029 22.1494 12.7336 21.6397L12.7425 25.6862C12.7425 25.7084 12.7381 25.7262 12.7381 25.7483C12.7381 25.7749 12.7381 25.8015 12.7425 25.8281L12.7469 27.991L10.0078 27.9776H10.0034C9.71087 27.9776 9.4272 27.8934 9.18343 27.7294L6.61271 26.0231C6.40443 25.8857 6.17391 25.7837 5.93906 25.7217V18.2713H6.86539C7.65435 18.2713 8.39448 17.8458 8.79778 17.1632C9.39612 16.1438 10.1939 15.2486 11.1646 14.5039C11.262 14.4286 11.3818 14.3798 11.5058 14.3621C13.2033 14.1272 14.9097 14.1494 16.5983 14.4242C16.6028 14.4242 16.6072 14.4242 16.6161 14.4286C17.1967 14.5261 17.7773 14.6502 18.3579 14.8054C18.8233 14.9295 19.138 15.3682 19.1114 15.8513C19.0848 16.33 18.7213 16.7333 18.2471 16.8086C17.2411 16.9682 16.2305 16.9504 15.2421 16.7599C15.2377 16.7599 15.2377 16.7599 15.2333 16.7599C15.22 16.7555 15.2067 16.7555 15.189 16.7555C15.1801 16.7555 15.1668 16.7511 15.158 16.7511C15.1446 16.7511 15.127 16.7511 15.1137 16.7511C15.1048 16.7511 15.0915 16.7511 15.0827 16.7511C15.0693 16.7511 15.0561 16.7511 15.0428 16.7555C15.0339 16.7555 15.0206 16.7555 15.0118 16.7599C14.9984 16.7599 14.9852 16.7643 14.9719 16.7643C14.9585 16.7643 14.9497 16.7687 14.9364 16.7687C14.923 16.7732 14.9142 16.7732 14.9009 16.7776C14.8876 16.782 14.8787 16.782 14.8654 16.7864C14.8521 16.7908 14.8432 16.7952 14.8299 16.7997C14.8166 16.8041 14.8077 16.8086 14.7944 16.8131C14.7811 16.8175 14.7722 16.8219 14.7634 16.8308C14.7546 16.8352 14.7413 16.8396 14.7324 16.8486C14.7191 16.853 14.7103 16.8619 14.7014 16.8663C14.6926 16.8707 14.6837 16.8796 14.6749 16.884C14.666 16.8929 14.6527 16.9018 14.6439 16.9062C14.635 16.9106 14.6261 16.9195 14.6173 16.9284C14.6085 16.9372 14.5951 16.9461 14.5863 16.9549C14.5775 16.9638 14.5686 16.9683 14.5641 16.9771C14.5553 16.9859 14.5464 16.9948 14.5376 17.0081C14.5287 17.0169 14.5242 17.0258 14.5154 17.0347C14.5066 17.0435 14.5021 17.0568 14.4932 17.0657C14.4844 17.0745 14.4799 17.0834 14.4711 17.0967C14.4667 17.1055 14.4578 17.1188 14.4533 17.1276C14.4489 17.141 14.44 17.1498 14.4356 17.1631C14.4312 17.172 14.4268 17.1853 14.4223 17.1941C14.4178 17.2075 14.4089 17.2207 14.4045 17.234C14.4001 17.2429 14.3957 17.2562 14.3912 17.265C14.3868 17.2784 14.3824 17.2916 14.3779 17.3049C14.3779 17.3093 14.3779 17.3093 14.3734 17.3138C14.1297 18.1959 13.6643 18.9626 13.0438 19.5566ZM18.8144 13.3649C18.8232 13.3649 18.8277 13.3605 18.8366 13.3605C19.3684 13.2142 19.9623 13.1611 20.5473 13.2187C22.0676 13.3605 23.6897 14.3046 23.8449 15.8337C23.9823 17.1943 22.6305 18.3467 21.2387 18.6791C20.1573 18.9362 19.0404 18.7987 18.1185 18.3422C18.2381 18.3289 18.3623 18.3112 18.4864 18.2891C19.6565 18.103 20.5562 17.1102 20.6182 15.9267C20.6803 14.7655 19.9269 13.6973 18.8144 13.3649ZM14.2537 29.2851L14.2493 26.5815C15.5878 26.8873 16.6515 27.9466 16.9573 29.2851H14.2537ZM21.7308 29.2719H18.482C18.3269 28.2259 17.8349 27.2464 17.0637 26.4752C16.2925 25.704 15.3086 25.2076 14.2493 25.0436L14.2405 20.4741C14.8255 19.8713 15.2998 19.1488 15.6144 18.3378C15.6454 18.3422 15.6765 18.3466 15.7075 18.3512C16.3679 19.1224 17.241 19.6985 18.256 20.022C18.8676 20.2171 19.5058 20.3145 20.1396 20.3145C20.6227 20.3145 21.1103 20.2569 21.5845 20.1417C23.5745 19.663 25.569 17.9389 25.3385 15.674C25.2232 14.5483 24.6427 13.5644 23.6543 12.8241C22.8255 12.2081 21.7706 11.8092 20.6803 11.7073C19.9047 11.6364 19.1468 11.6985 18.4288 11.8979C17.7108 12.0973 17.0504 12.4298 16.4919 12.8686C15.7429 12.7622 14.9894 12.7001 14.236 12.6824L14.2448 6.95615C15.3085 6.7922 16.288 6.29575 17.0592 5.52454C17.8348 4.74892 18.3312 3.76502 18.4908 2.70131H21.7307C21.8946 3.76502 22.3867 4.74892 23.1623 5.52454C23.9335 6.29575 24.9086 6.7877 25.9679 6.95615V25.0348C24.9086 25.1988 23.9335 25.6952 23.1623 26.4665C22.3911 27.2375 21.8992 28.2126 21.7308 29.2719ZM25.9767 29.2851H23.2731C23.5789 27.951 24.6382 26.8873 25.9767 26.5815V29.2851ZM25.9767 5.4314C24.6338 5.12556 23.5701 4.05744 23.2687 2.71447H25.9767V5.4314ZM27.4881 16.3389H27.528C27.5324 16.3389 27.5324 16.3389 27.5368 16.3389C27.5412 16.3389 27.5412 16.3389 27.5456 16.3389C27.8914 16.33 28.2193 16.5117 28.3921 16.8086C28.565 17.1056 28.5694 17.4779 28.3966 17.7749C28.2237 18.0763 27.8957 18.258 27.5544 18.2536C27.55 18.2536 27.5456 18.2536 27.5411 18.2536C27.5367 18.2536 27.5367 18.2536 27.5323 18.2536H27.488V16.3389H27.4881ZM29.7618 24.494C29.6155 24.7777 29.323 24.9638 29.0039 24.9815H27.4836V23.1821H28.8664C28.8664 23.1821 28.8664 23.1821 28.8708 23.1821C29.0481 23.1821 29.4869 23.222 29.7174 23.581C29.8947 23.8557 29.9125 24.2059 29.7618 24.494ZM30.3645 21.2009C30.1917 21.5023 29.8637 21.684 29.5224 21.6796C29.518 21.6796 29.5136 21.6796 29.5091 21.6796H27.4881V19.7649H29.4958C29.5003 19.7649 29.5003 19.7649 29.5047 19.7649C29.5091 19.7649 29.5091 19.7649 29.5135 19.7649C29.8592 19.7561 30.1872 19.9378 30.36 20.2347C30.5374 20.5272 30.5374 20.8995 30.3645 21.2009Z" fill="url(#paint0_linear_185_3852)"/>
</g>
<defs>
<linearGradient id="paint0_linear_185_3852" x1="0" y1="1.20313" x2="34.9675" y2="5.26775" gradientUnits="userSpaceOnUse">
<stop stop-color="#127FFF"/>
<stop offset="1" stop-color="#69A6FF"/>
</linearGradient>
<clipPath id="clip0_185_3852">
<rect width="32" height="32" fill="white"/>
</clipPath>
</defs>
</svg>
