<svg width="40" height="12" viewBox="0 0 40 12" fill="none" xmlns="http://www.w3.org/2000/svg">
<g clip-path="url(#clip0_185_3763)">
<path fill-rule="evenodd" clip-rule="evenodd" d="M6.26765 8.9187H4.54282C1.8521 8.9187 3.80691 2.8553 6.07218 2.8553H8.79742C9.23435 2.8553 10.0048 2.94071 10.3843 1.7939L10.9707 0.0126953H7.23355C5.20978 0.0126953 3.63441 0.769097 2.49603 2.0379C0.529725 4.20949 -0.137207 7.6011 0.334247 9.22371C0.782702 10.7243 2.00158 11.7125 3.91038 11.7369L5.39375 11.7491H7.22205L7.67052 10.3217C8.00398 9.30911 7.25656 8.9187 6.26765 8.9187ZM27.2646 6.40549L27.828 4.46571H21.8141C20.8137 4.46571 20.3653 4.75851 20.1928 5.36849L19.6293 7.3083H25.6432C26.6436 7.3083 27.0921 7.0155 27.2646 6.40549ZM18.7324 9.82151L18.169 11.7613H24.1829C25.1718 11.7613 25.6317 11.4685 25.8042 10.8585L26.3677 8.9187H20.3538C19.3649 8.9187 18.9164 9.2115 18.7324 9.82151ZM28.6674 1.9647L29.231 0.0248952H23.217C22.2166 0.0248952 21.7681 0.317695 21.5957 0.927696L21.0322 2.8675H27.0461C28.0351 2.8675 28.4834 2.5747 28.6674 1.9647ZM19.5834 2.3551C19.3304 0.549497 18.4219 0.0248952 16.2142 0.0248952H12.1896L9.84382 7.3083H11.3272C12.2126 7.3083 12.661 7.32051 13.1325 5.9785L14.1099 2.8553H15.6047C16.8811 2.8553 16.5936 4.55111 15.9497 6.1981C15.3748 7.64989 14.3744 8.93091 13.167 8.93091H10.6717C9.67132 8.93091 9.21138 9.22371 9.02738 9.83372L8.40644 11.7735H10.2348L12.0286 11.7613C13.6154 11.7491 14.9148 11.6271 16.4326 10.1753C18.0425 8.6259 19.9053 4.64869 19.5834 2.3551ZM39.7984 0.0126953H36.3143L33.0371 3.7093C32.6575 4.13629 32.2666 4.56329 31.887 5.06351H31.8525L33.4853 0.0126953H30.6453L26.8161 11.7613H29.6564L30.8751 8.06471L32.14 6.9301L33.1405 10.2729C33.4509 11.3099 33.7731 11.7613 34.463 11.7613H36.6362L34.4053 5.19771L39.7984 0.0126953Z" fill="#00B33C"/>
</g>
<defs>
<clipPath id="clip0_185_3763">
<rect width="40" height="12" fill="white"/>
</clipPath>
</defs>
</svg>
