<svg width="17" height="17" viewBox="0 0 17 17" fill="none" xmlns="http://www.w3.org/2000/svg">
<path d="M8.85367 5.73419H7.79117V9.98419L11.1558 12.0029L11.687 11.1317L8.85367 9.45294V5.73419ZM12.2799 1.34961L15.5432 4.07315L14.6365 5.16044L11.3711 2.43832L12.2799 1.34961ZM4.71913 1.34961L5.62721 2.43761L2.36321 5.16044L1.45654 4.07244L4.71913 1.34961ZM8.4995 2.90086C4.97908 2.90086 2.1245 5.75544 2.1245 9.27586C2.1245 12.7963 4.97908 15.6509 8.4995 15.6509C12.0199 15.6509 14.8745 12.7963 14.8745 9.27586C14.8745 5.75544 12.0199 2.90086 8.4995 2.90086ZM8.4995 14.2342C5.76533 14.2342 3.54117 12.01 3.54117 9.27586C3.54117 6.54169 5.76533 4.31753 8.4995 4.31753C11.2337 4.31753 13.4578 6.54169 13.4578 9.27586C13.4578 12.01 11.2337 14.2342 8.4995 14.2342Z" fill="#1C1C1C"/>
</svg>
