<svg>
<path d="M10.75 22.5C11.7165 22.5 12.5 21.7165 12.5 20.75C12.5 19.7835 11.7165 19 10.75 19C9.7835 19 9 19.7835 9 20.75C9 21.7165 9.7835 22.5 10.75 22.5Z" />
<path d="M19.25 22.5C20.2165 22.5 21 21.7165 21 20.75C21 19.7835 20.2165 19 19.25 19C18.2835 19 17.5 19.7835 17.5 20.75C17.5 21.7165 18.2835 22.5 19.25 22.5Z" />
<path fill-rule="evenodd" clip-rule="evenodd" d="M2.37604 2.58405C2.60581 2.23941 3.07146 2.14628 3.4161 2.37604L7.9161 5.37604C8.07598 5.48262 8.18885 5.6465 8.23143 5.83386L10.5988 16.2501H19.4389L21.4977 9.25008H13.0001C12.5859 9.25008 12.2501 8.91429 12.2501 8.50008C12.2501 8.08587 12.5859 7.75008 13.0001 7.75008H22.5001C22.7364 7.75008 22.959 7.8615 23.1006 8.05076C23.2422 8.24001 23.2863 8.48494 23.2196 8.7117L20.7196 17.2117C20.6257 17.5309 20.3328 17.7501 20.0001 17.7501H10.0001C9.64991 17.7501 9.34634 17.5078 9.26873 17.1663L6.83505 6.45812L2.58405 3.62412C2.23941 3.39435 2.14628 2.9287 2.37604 2.58405Z" />
<path fill-rule="evenodd" clip-rule="evenodd" d="M12.25 13C12.25 12.5858 12.5858 12.25 13 12.25H21C21.4142 12.25 21.75 12.5858 21.75 13C21.75 13.4142 21.4142 13.75 21 13.75H13C12.5858 13.75 12.25 13.4142 12.25 13Z" />
</svg>
