<svg>
<path fill-rule="evenodd" clip-rule="evenodd" d="M1.25 21C1.25 20.5858 1.58579 20.25 2 20.25H22C22.4142 20.25 22.75 20.5858 22.75 21C22.75 21.4142 22.4142 21.75 22 21.75H2C1.58579 21.75 1.25 21.4142 1.25 21Z"/>
<path fill-rule="evenodd" clip-rule="evenodd" d="M3.25 14C3.25 13.5858 3.58579 13.25 4 13.25H7C7.41421 13.25 7.75 13.5858 7.75 14V21C7.75 21.4142 7.41421 21.75 7 21.75H4C3.58579 21.75 3.25 21.4142 3.25 21V14ZM4.75 14.75V20.25H6.25V14.75H4.75Z"/>
<path fill-rule="evenodd" clip-rule="evenodd" d="M9.75 9C9.75 8.58579 10.0858 8.25 10.5 8.25H13.5C13.9142 8.25 14.25 8.58579 14.25 9V21C14.25 21.4142 13.9142 21.75 13.5 21.75H10.5C10.0858 21.75 9.75 21.4142 9.75 21V9ZM11.25 9.75V20.25H12.75V9.75H11.25Z"/>
<path fill-rule="evenodd" clip-rule="evenodd" d="M16.25 3C16.25 2.58579 16.5858 2.25 17 2.25H20C20.4142 2.25 20.75 2.58579 20.75 3V21C20.75 21.4142 20.4142 21.75 20 21.75H17C16.5858 21.75 16.25 21.4142 16.25 21V3ZM17.75 3.75V20.25H19.25V3.75H17.75Z"/>
</svg>
