<svg width="30" height="30" viewBox="0 0 30 30" fill="none" xmlns="http://www.w3.org/2000/svg">
<g clip-path="url(#clip0_145_3800)">
<path d="M29.8223 10.3541C29.4384 9.20721 28.5073 8.48425 27.6849 7.84613C27.2449 7.50403 26.8299 7.18176 26.586 6.86102C26.341 6.53967 26.1472 6.0578 25.9424 5.54724C25.565 4.60791 25.138 3.54346 24.1456 2.8504C23.17 2.17047 21.9994 2.10791 20.9665 2.05359C20.3863 2.02277 19.8383 1.99347 19.4178 1.86224C19.0333 1.74414 18.5902 1.46674 18.1208 1.17346C17.2401 0.624146 16.241 0.000976562 14.9996 0.000976562C13.7561 0.000976562 12.7567 0.625977 11.8754 1.17712C11.4085 1.46979 10.9675 1.74536 10.5854 1.86346C10.1649 1.99469 9.61381 2.0249 9.03064 2.05603C8.00011 2.11218 6.83073 2.17535 5.85329 2.85162C4.86212 3.54407 4.43459 4.60913 4.05772 5.54785C3.85265 6.0578 3.65826 6.54028 3.41016 6.8653C3.16969 7.18298 2.75467 7.50525 2.31463 7.84796C1.49588 8.48486 0.567878 9.2066 0.180322 10.3474C-0.200216 11.4634 0.1022 12.5648 0.369217 13.5367C0.516611 14.0754 0.65668 14.5841 0.65668 15.001C0.65668 15.4178 0.516611 15.9266 0.368607 16.4655C0.10159 17.4372 -0.200826 18.538 0.179101 19.6534C0.567268 20.7953 1.49527 21.5174 2.31402 22.1543C2.75406 22.4967 3.16908 22.8193 3.41321 23.1409C3.65765 23.4617 3.85082 23.9417 4.05588 24.451C4.43459 25.3922 4.86395 26.4591 5.85756 27.1497C6.83073 27.8318 8.00194 27.8934 9.03553 27.9487C9.61747 27.9792 10.1662 28.0085 10.5818 28.1379C10.9623 28.2572 11.4024 28.5322 11.868 28.8236C12.7512 29.3754 13.7536 30.001 14.9996 30.001C16.2441 30.001 17.2453 29.3766 18.1285 28.826C18.5966 28.5334 19.0387 28.2584 19.4226 28.1379C19.8383 28.0079 20.3863 27.9786 20.9665 27.9478C21.9994 27.8928 23.17 27.8303 24.1469 27.1503C25.138 26.4579 25.5656 25.3928 25.9424 24.4541C26.1472 23.9442 26.3416 23.4617 26.5897 23.1367C26.8299 22.8199 27.2449 22.4979 27.6849 22.1561C28.5067 21.518 29.4384 20.7947 29.8195 19.6549C30.2004 18.5386 29.8976 17.4372 29.6309 16.4655C29.4829 15.9266 29.3429 15.4178 29.3429 15.001C29.3429 14.5841 29.4829 14.0754 29.6309 13.5367C29.8976 12.5654 30.2004 11.4643 29.8223 10.3541ZM27.2205 17.1277C27.4005 17.7823 27.5867 18.4592 27.4518 18.8541C27.308 19.2835 26.7197 19.7397 26.1518 20.181C25.6031 20.6074 25.0361 21.048 24.6006 21.6236C24.1487 22.2141 23.8692 22.9099 23.6238 23.5224C23.3519 24.1971 23.0956 24.8353 22.7169 25.1005C22.3263 25.373 21.6018 25.4111 20.8343 25.4523C20.1257 25.4899 19.3927 25.5286 18.6771 25.7517C17.9872 25.9678 17.3878 26.3422 16.8065 26.7042C16.1492 27.114 15.5285 27.501 14.9996 27.501C14.4699 27.501 13.8492 27.1134 13.1915 26.7029C12.6136 26.3416 12.016 25.9678 11.3273 25.7517C10.6105 25.5292 9.87747 25.4899 9.16797 25.4523C8.40201 25.4117 7.67816 25.373 7.28817 25.1005C6.90458 24.8328 6.64763 24.1941 6.37512 23.5178C6.11695 22.8766 5.85024 22.2135 5.40257 21.6285C4.96313 21.0486 4.39706 20.6074 3.84898 20.1816C3.28077 19.7397 2.69272 19.2829 2.54533 18.8486C2.41289 18.4604 2.59904 17.7836 2.77909 17.1293C2.95577 16.486 3.15657 15.7566 3.15657 15.0022C3.15657 14.2478 2.95638 13.5184 2.77909 12.8754C2.59904 12.2211 2.41289 11.5443 2.54594 11.1548C2.69272 10.7224 3.28077 10.2646 3.84898 9.82275C4.39706 9.39673 4.96313 8.95544 5.3989 8.37988C5.85085 7.78906 6.13007 7.09357 6.37573 6.48108C6.64763 5.80603 6.90366 5.16791 7.27871 4.90546C7.67053 4.63416 8.39621 4.5954 9.16491 4.55359C9.87564 4.51483 10.6099 4.47546 11.3255 4.25299C12.016 4.03906 12.6178 3.66278 13.1998 3.29901C13.8553 2.88733 14.4735 2.50098 14.9996 2.50098C15.5254 2.50098 16.1428 2.88672 16.797 3.29535C17.382 3.66034 17.9865 4.03784 18.6771 4.25055C19.3927 4.47363 20.1251 4.513 20.8337 4.54962C21.6012 4.59052 22.3257 4.62927 22.715 4.90088C23.095 5.1673 23.3519 5.80481 23.6232 6.47986C23.8692 7.09235 24.1487 7.78784 24.5967 8.37408C25.0361 8.95422 25.6031 9.3949 26.1518 9.82031C26.7197 10.2616 27.308 10.7184 27.4542 11.1542C27.5867 11.5424 27.4005 12.2193 27.2205 12.8736C27.0435 13.5172 26.843 14.2466 26.843 15.001C26.843 15.7554 27.0435 16.4847 27.2205 17.1277Z" fill="white"/>
<path d="M20.6244 15.001C20.6244 18.1028 18.1013 20.626 14.9996 20.626C11.898 20.626 9.37489 18.1028 9.37489 15.001C9.37489 11.8992 11.898 9.37598 14.9996 9.37598H16.2496V6.87598H14.9996C10.5199 6.87598 6.875 10.521 6.875 15.001C6.875 19.481 10.5199 23.126 14.9996 23.126C19.4794 23.126 23.1243 19.481 23.1243 15.001V13.751H20.6244V15.001Z" fill="white"/>
<path d="M13.7496 11.9834L11.9824 13.751L14.9996 16.7686L21.7668 10.001L19.9993 8.2334L14.9996 13.2334L13.7496 11.9834Z" fill="white"/>
</g>
<defs>
<clipPath id="clip0_145_3800">
<rect width="30" height="30" fill="white"/>
</clipPath>
</defs>
</svg>
