<svg width="25" height="24" viewBox="0 0 25 24" fill="none" xmlns="http://www.w3.org/2000/svg">
<path fill-rule="evenodd" clip-rule="evenodd" d="M1.75 9.5C1.75 6.04824 4.54822 3.25 8 3.25C9.76772 3.25 11.3639 3.98438 12.5 5.16271C13.6361 3.98438 15.2323 3.25 17 3.25C20.4518 3.25 23.25 6.04824 23.25 9.5C23.25 12.5381 21.4668 15.3433 19.3454 17.4856C17.2168 19.6353 14.6191 21.2492 12.7365 21.8748C12.583 21.9259 12.417 21.9259 12.2635 21.8748C10.3809 21.2492 7.78321 19.6353 5.65457 17.4856C3.53322 15.3433 1.75 12.5381 1.75 9.5ZM8 4.75C5.37665 4.75 3.25 6.87666 3.25 9.5C3.25 11.9619 4.71678 14.4067 6.72043 16.4302C8.62163 18.3502 10.891 19.7727 12.5 20.3682C14.109 19.7727 16.3784 18.3502 18.2796 16.4302C20.2832 14.4067 21.75 11.9619 21.75 9.5C21.75 6.87666 19.6233 4.75 17 4.75C15.3941 4.75 13.9741 5.54621 13.1132 6.76872C12.9727 6.96821 12.744 7.0869 12.5 7.0869C12.256 7.0869 12.0273 6.96821 11.8868 6.76872C11.0259 5.54621 9.60588 4.75 8 4.75Z" fill="#ACACAC"/>
</svg>
