<svg width="17" height="17" viewBox="0 0 17 17" fill="none" xmlns="http://www.w3.org/2000/svg">
<path d="M8.50016 8.50033C7.721 8.50033 7.0835 7.86283 7.0835 7.08366C7.0835 6.30449 7.721 5.66699 8.50016 5.66699C9.27933 5.66699 9.91683 6.30449 9.91683 7.08366C9.91683 7.86283 9.27933 8.50033 8.50016 8.50033ZM12.7502 7.22533C12.7502 4.65408 10.8731 2.83366 8.50016 2.83366C6.12725 2.83366 4.25016 4.65408 4.25016 7.22533C4.25016 8.88283 5.63141 11.0787 8.50016 13.6995C11.3689 11.0787 12.7502 8.88283 12.7502 7.22533ZM8.50016 1.41699C11.4752 1.41699 14.1668 3.69783 14.1668 7.22533C14.1668 9.57699 12.2756 12.3607 8.50016 15.5837C4.72475 12.3607 2.8335 9.57699 2.8335 7.22533C2.8335 3.69783 5.52516 1.41699 8.50016 1.41699Z" fill="#1C1C1C"/>
</svg>
