<svg width="72" height="72" viewBox="0 0 72 72" fill="none" xmlns="http://www.w3.org/2000/svg">
<path d="M52.874 39.432V32.6239C52.874 32.002 52.3709 31.4989 51.749 31.4989C51.1272 31.4989 50.624 32.002 50.624 32.6239V39.432C42.4645 40.0127 35.999 46.82 35.999 55.125C35.999 58.4713 37.0558 61.5711 38.8422 64.125H14.624C14.0022 64.125 13.499 64.6282 13.499 65.25C13.499 65.8718 14.0022 66.375 14.624 66.375H40.7474C41.6287 67.237 42.6156 67.9871 43.6784 68.625H7.87402V66.375H10.124C10.7459 66.375 11.249 65.8718 11.249 65.25C11.249 64.6282 10.7459 64.125 10.124 64.125H7.87402V25.875H17.999V29.4097C16.0635 29.9128 14.624 31.659 14.624 33.75C14.624 36.2318 16.6423 38.25 19.124 38.25C21.6058 38.25 23.624 36.2318 23.624 33.75C23.624 31.6589 22.1846 29.9126 20.249 29.4097V25.875H22.499C23.1209 25.875 23.624 25.3718 23.624 24.75C23.624 24.1282 23.1209 23.625 22.499 23.625H20.249V18.0003L38.249 18.0008V23.625H26.999C26.3772 23.625 25.874 24.1282 25.874 24.75C25.874 25.3718 26.3772 25.875 26.999 25.875H38.249V29.4097C36.3135 29.9128 34.874 31.659 34.874 33.75C34.874 36.2318 36.8923 38.25 39.374 38.25C41.8558 38.25 43.874 36.2318 43.874 33.75C43.874 31.6589 42.4346 29.9126 40.499 29.4097V25.875H50.624V28.125C50.624 28.7468 51.1272 29.25 51.749 29.25C52.3709 29.25 52.874 28.7468 52.874 28.125V24.75C52.874 24.3468 52.6576 23.9733 52.3072 23.7734L50.624 22.8115V16.8761C50.624 16.2543 50.1209 15.7511 49.499 15.7511L40.499 15.7508V12.375C40.499 6.17217 35.4519 1.125 29.249 1.125C23.0462 1.125 17.999 6.17217 17.999 12.375V15.7503L8.9979 15.75C8.69907 15.75 8.41346 15.8687 8.20252 16.0796C7.99159 16.2906 7.8729 16.5762 7.8729 16.875V22.8122L6.19088 23.7734C5.84045 23.9733 5.62402 24.3468 5.62402 24.75V69.75C5.62402 70.3718 6.12718 70.875 6.74902 70.875H51.749C60.4337 70.875 67.499 63.8097 67.499 55.125C67.499 46.82 61.0335 40.0129 52.874 39.432ZM21.374 33.75C21.374 34.9903 20.3643 36 19.124 36C17.8837 36 16.874 34.9903 16.874 33.75C16.874 32.9212 17.3299 32.2034 17.999 31.8132V33.75C17.999 34.3718 18.5022 34.875 19.124 34.875C19.7459 34.875 20.249 34.3718 20.249 33.75V31.8132C20.9181 32.2035 21.374 32.9213 21.374 33.75ZM41.624 33.75C41.624 34.9903 40.6143 36 39.374 36C38.1337 36 37.124 34.9903 37.124 33.75C37.124 32.9212 37.5799 32.2034 38.249 31.8132V33.75C38.249 34.3718 38.7522 34.875 39.374 34.875C39.9959 34.875 40.499 34.3718 40.499 33.75V31.8132C41.1681 32.2035 41.624 32.9213 41.624 33.75ZM13.499 23.625H10.9849L13.499 22.1884V23.625ZM17.999 23.625H15.749V20.25C15.749 20.2206 15.7402 20.193 15.7378 20.1641C15.7352 20.131 15.7306 20.0997 15.7251 20.0668C15.7032 19.935 15.6663 19.8075 15.6012 19.6933L15.6008 19.6919C15.5997 19.69 15.5979 19.6889 15.5967 19.6871C15.532 19.5754 15.443 19.4805 15.3429 19.3961C15.3169 19.3742 15.2923 19.3534 15.2646 19.334C15.2431 19.3189 15.2259 19.299 15.2031 19.2853L13.0606 18H17.9992V23.625H17.999ZM20.3271 15.7503C20.8834 11.3178 24.6682 7.875 29.249 7.875C33.8299 7.875 37.6149 11.3181 38.171 15.7508L20.3271 15.7503ZM40.499 18.0008H45.4364L43.2949 19.2853C42.9566 19.4885 42.7489 19.8544 42.7489 20.2499V23.6249H40.4989V18.0007L40.499 18.0008ZM44.999 22.1878L47.5137 23.6249H44.999V22.1878ZM46.1008 20.2262L48.374 18.8627V21.5255L46.1008 20.2262ZM29.249 3.375C33.2371 3.375 36.6231 5.985 37.8009 9.58472C35.7358 7.16597 32.671 5.625 29.249 5.625C25.8271 5.625 22.7623 7.16597 20.6972 9.58472C21.8749 5.98486 25.2609 3.375 29.249 3.375ZM10.123 18.8618L12.3979 20.2265L10.123 21.5265V18.8618ZM51.749 68.625C44.3046 68.625 38.249 62.5694 38.249 55.125C38.249 47.6806 44.3046 41.625 51.749 41.625C59.1934 41.625 65.249 47.6806 65.249 55.125C65.249 62.5694 59.1934 68.625 51.749 68.625Z" fill="url(#paint0_linear_361_7550)"/>
<path d="M49.4989 63C48.4722 63 47.5076 62.6001 46.7826 61.875L43.7773 58.8691C43.1237 58.2155 42.749 57.3113 42.749 56.3863C42.749 54.4504 44.3239 52.875 46.2603 52.875C47.1985 52.875 48.0801 53.2398 48.7432 53.9033L49.499 54.6591L54.7549 49.4033C55.4179 48.7396 56.2995 48.375 57.2378 48.375C59.1742 48.375 60.749 49.9504 60.749 51.8863C60.749 52.8113 60.3744 53.7155 59.7208 54.3691L52.2149 61.875C51.4904 62.6001 50.5257 63 49.4992 63H49.4989ZM46.2601 55.125C45.5648 55.125 44.9989 55.6907 44.9989 56.3863C44.9989 56.718 45.1335 57.0433 45.368 57.2784L48.3739 60.2842C48.9748 60.8863 50.0234 60.8863 50.6233 60.2842L58.1297 52.7784C58.3643 52.5433 58.4989 52.2181 58.4989 51.8863C58.4989 51.1909 57.9331 50.625 57.2376 50.625C56.9004 50.625 56.584 50.7558 56.3455 50.9941L50.2943 57.0454C49.8548 57.4848 49.1428 57.4848 48.7035 57.0454L47.1523 55.4941C46.9139 55.2558 46.5975 55.125 46.2601 55.125Z" fill="url(#paint1_linear_361_7550)"/>
<defs>
<linearGradient id="paint0_linear_361_7550" x1="5.62402" y1="1.125" x2="73.5329" y2="7.60087" gradientUnits="userSpaceOnUse">
<stop stop-color="#127FFF"/>
<stop offset="1" stop-color="#69A6FF"/>
</linearGradient>
<linearGradient id="paint1_linear_361_7550" x1="42.749" y1="48.375" x2="62.341" y2="50.9671" gradientUnits="userSpaceOnUse">
<stop stop-color="#127FFF"/>
<stop offset="1" stop-color="#69A6FF"/>
</linearGradient>
</defs>
</svg>
