<svg>
<path d="M20.6 23H4.4C4.16131 23 3.93239 22.9034 3.7636 22.7315C3.59482 22.5596 3.5 22.3264 3.5 22.0833V21.174C3.50259 19.757 3.96819 18.3812 4.82339 17.2635C5.6786 16.1458 6.87474 15.3499 8.2232 15.0012C8.41441 14.9534 8.58463 14.8424 8.70714 14.6854C8.82964 14.5285 8.89748 14.3345 8.9 14.134V13.2118L7.8947 12.1888C7.64288 11.937 7.44289 11.6366 7.30644 11.3051C7.16998 10.9736 7.0998 10.6178 7.1 10.2583V6.46517C7.1165 5.04885 7.66539 3.69285 8.63373 2.67623C9.60207 1.65961 10.9162 1.05971 12.3056 1C13.0393 0.999041 13.766 1.14528 14.4443 1.43037C15.1225 1.71547 15.739 2.13383 16.2585 2.66158C16.7779 3.18932 17.1903 3.81612 17.4719 4.50617C17.7536 5.19623 17.8991 5.93603 17.9 6.68334V10.2583C17.8997 10.6203 17.8283 10.9786 17.69 11.312C17.5516 11.6455 17.3492 11.9473 17.0945 12.1998L16.1 13.2118V14.134C16.1026 14.3346 16.1705 14.5287 16.2932 14.6857C16.4159 14.8426 16.5863 14.9536 16.7777 15.0012C18.1259 15.3502 19.3218 16.1462 20.1768 17.2639C21.0318 18.3815 21.4973 19.7572 21.5 21.174V22.0833C21.5 22.3264 21.4052 22.5596 21.2364 22.7315C21.0676 22.9034 20.8387 23 20.6 23ZM5.3 21.1667H19.7C19.6958 20.1579 19.3624 19.1792 18.7522 18.3847C18.142 17.5901 17.2897 17.0248 16.3295 16.7777C15.7513 16.6286 15.2381 16.2881 14.8707 15.8095C14.5033 15.3309 14.3025 14.7415 14.3 14.134V12.8323C14.3001 12.5892 14.3949 12.3561 14.5637 12.1843L15.8327 10.8927C15.9169 10.8107 15.984 10.7123 16.0299 10.6033C16.0758 10.4943 16.0997 10.377 16.1 10.2583V6.68334C16.1015 5.67034 15.7104 4.69768 15.0117 3.97676C14.313 3.25584 13.3631 2.84493 12.3686 2.83334C11.4438 2.87107 10.5684 3.26882 9.92303 3.94456C9.27766 4.62031 8.91148 5.52253 8.9 6.46517V10.2583C8.89981 10.3744 8.92241 10.4893 8.96646 10.5964C9.0105 10.7034 9.07512 10.8004 9.1565 10.8817L10.4363 12.1833C10.6051 12.3552 10.6999 12.5883 10.7 12.8314V14.1331C10.6975 14.7405 10.4969 15.3298 10.1297 15.8083C9.76245 16.2869 9.24947 16.6276 8.6714 16.7768C7.71084 17.0237 6.85823 17.5891 6.24786 18.3839C5.63748 19.1786 5.30402 20.1576 5.3 21.1667Z"/>
</svg>
