<svg width="16" height="16" viewBox="0 0 16 16" fill="none" xmlns="http://www.w3.org/2000/svg">
<g clip-path="url(#clip0_144_3473)">
<path d="M9.40625 4.875H7.0625C6.88994 4.875 6.75 5.01494 6.75 5.1875V7.6875H6.125C5.95244 7.6875 5.8125 7.82744 5.8125 8C5.8125 8.17256 5.95244 8.3125 6.125 8.3125H6.75V9.5625H6.125C5.95244 9.5625 5.8125 9.70244 5.8125 9.875C5.8125 10.0476 5.95244 10.1875 6.125 10.1875H6.75V11.75C6.75 11.9226 6.88994 12.0625 7.0625 12.0625C7.23506 12.0625 7.375 11.9226 7.375 11.75V10.1875H9.875C10.0476 10.1875 10.1875 10.0476 10.1875 9.875C10.1875 9.70244 10.0476 9.5625 9.875 9.5625H7.375V8.3125H9.40625C10.5276 8.3125 11.1142 7.4475 11.1142 6.59306C11.1142 5.73928 10.5276 4.875 9.40625 4.875ZM9.40625 7.6875H7.375V5.5H9.40625C9.74525 5.5 10.0262 5.61528 10.2187 5.83347C10.3906 6.02831 10.4892 6.30519 10.4892 6.59306C10.4892 7.13781 10.1543 7.6875 9.40625 7.6875Z" fill="#EB001B"/>
<path d="M8 1.875C4.62266 1.875 1.875 4.62266 1.875 8C1.875 11.3773 4.62266 14.125 8 14.125C11.3773 14.125 14.125 11.3773 14.125 8C14.125 4.62266 11.3773 1.875 8 1.875ZM8 13.5C4.96728 13.5 2.5 11.0327 2.5 8C2.5 4.96728 4.96728 2.5 8 2.5C11.0327 2.5 13.5 4.96728 13.5 8C13.5 11.0327 11.0327 13.5 8 13.5Z" fill="#EB001B"/>
<path d="M13.4375 13.75C13.6101 13.75 13.75 13.6101 13.75 13.4375C13.75 13.2649 13.6101 13.125 13.4375 13.125C13.2649 13.125 13.125 13.2649 13.125 13.4375C13.125 13.6101 13.2649 13.75 13.4375 13.75Z" fill="#EB001B"/>
<path d="M8 0C3.57559 0 0 3.57444 0 8C0 12.4244 3.57444 16 8 16C9.63013 16 11.198 15.5137 12.5341 14.5938C12.6763 14.496 12.7121 14.3014 12.6143 14.1593C12.5164 14.0171 12.3218 13.9813 12.1797 14.0791C10.9483 14.9269 9.503 15.375 8 15.375C3.93341 15.375 0.625 12.0666 0.625 8C0.625 3.93341 3.93341 0.625 8 0.625C12.0666 0.625 15.375 3.93341 15.375 8C15.375 9.50294 14.9269 10.9482 14.0791 12.1797C13.9812 12.3218 14.0171 12.5164 14.1592 12.6143C14.3014 12.7121 14.4959 12.6762 14.5938 12.5341C15.5138 11.1979 16 9.63009 16 8C16 3.57559 12.4256 0 8 0Z" fill="#EB001B"/>
</g>
<defs>
<clipPath id="clip0_144_3473">
<rect width="16" height="16" fill="white"/>
</clipPath>
</defs>
</svg>
