<svg width="17" height="17" viewBox="0 0 17 17" fill="none" xmlns="http://www.w3.org/2000/svg">
<g clip-path="url(#clip0_119_3476)">
<path d="M16.3834 10.3011C16.5039 9.7493 16.5681 9.17685 16.5681 8.58905C16.5681 4.18207 12.9958 0.609775 8.58884 0.609775C8.12369 0.609775 7.66805 0.65035 7.22439 0.726584C6.51105 0.277545 5.66726 0.0166016 4.76218 0.0166016C2.2068 0.0166016 0.135254 2.08858 0.135254 4.64396C0.135254 5.49811 0.367643 6.29757 0.771525 6.98434C0.665475 7.50255 0.609561 8.03937 0.609561 8.58908C0.609561 12.9961 4.18185 16.5683 8.5888 16.5683C9.08841 16.5683 9.57633 16.522 10.0502 16.4341C10.7014 16.7846 11.4462 16.9834 12.2373 16.9834C14.7931 16.9834 16.8647 14.9118 16.8647 12.356C16.8647 11.6179 16.6911 10.9203 16.3834 10.3011ZM12.681 12.402C12.3123 12.9248 11.7668 13.3386 11.0601 13.6323C10.3605 13.9231 9.52168 14.0706 8.56686 14.0706C7.42068 14.0706 6.45969 13.8692 5.70996 13.4716C5.17393 13.1816 4.73156 12.7898 4.39601 12.3055C4.05717 11.8164 3.88528 11.3317 3.88528 10.8636C3.88528 10.5711 3.99754 10.3177 4.21831 10.1105C4.43702 9.90466 4.71705 9.8007 5.05091 9.8007C5.32513 9.8007 5.56164 9.88271 5.75385 10.0451C5.93737 10.2008 6.09518 10.4311 6.22152 10.7286C6.3632 11.0525 6.51729 11.3259 6.68009 11.5413C6.83667 11.7484 7.06159 11.9224 7.34906 12.0586C7.63863 12.1958 8.0284 12.2649 8.50809 12.2649C9.16796 12.2649 9.70894 12.1241 10.1157 11.8461C10.5129 11.5753 10.7059 11.2497 10.7059 10.8507C10.7059 10.5355 10.6049 10.2883 10.3977 10.0939C10.1803 9.89098 9.89452 9.73273 9.54611 9.62422C9.1837 9.51157 8.69117 9.38938 8.08265 9.26178C7.25464 9.08451 6.55083 8.87407 5.99122 8.63587C5.41917 8.39272 4.95774 8.05514 4.62053 7.6326C4.27797 7.20431 4.10442 6.66622 4.10442 6.03367C4.10442 5.43097 4.28667 4.8875 4.64623 4.419C5.00287 3.95343 5.52399 3.59178 6.19502 3.34369C6.85736 3.09888 7.64484 2.9746 8.53584 2.9746C9.24868 2.9746 9.87499 3.05701 10.3982 3.21981C10.9238 3.38343 11.3675 3.60463 11.7158 3.87676C12.0667 4.15099 12.3277 4.44427 12.4917 4.74871C12.6574 5.0569 12.7411 5.3626 12.7411 5.65917C12.7411 5.94416 12.6313 6.20347 12.4139 6.42882C12.1952 6.65623 11.9197 6.77181 11.5945 6.77181C11.2991 6.77181 11.0676 6.69933 10.9073 6.55725C10.7578 6.42554 10.6028 6.21924 10.4309 5.9235C10.2317 5.54532 9.99104 5.24749 9.71475 5.03748C9.44674 4.83325 8.99853 4.72969 8.38258 4.72969C7.81052 4.72969 7.34578 4.84483 7.0003 5.07101C6.66727 5.28932 6.50571 5.53994 6.50571 5.83608C6.50571 6.01793 6.5575 6.16954 6.66478 6.30043C6.77827 6.43878 6.93818 6.56054 7.14032 6.66161C7.34993 6.76723 7.56615 6.8509 7.78237 6.91057C8.00439 6.97229 8.37677 7.0634 8.88667 7.18147C9.53247 7.31983 10.126 7.47519 10.6509 7.64293C11.1819 7.81316 11.6413 8.02274 12.0154 8.26632C12.3977 8.51527 12.7005 8.83462 12.9151 9.21656C13.1305 9.59929 13.2394 10.0723 13.2394 10.6216C13.2393 11.2787 13.0517 11.878 12.681 12.402Z" fill="black"/>
</g>
<defs>
<clipPath id="clip0_119_3476">
<rect width="17" height="17" fill="white"/>
</clipPath>
</defs>
</svg>
