<svg width="17" height="17" viewBox="0 0 17 17" fill="none" xmlns="http://www.w3.org/2000/svg">
<path d="M4.6325 3.54167C4.675 4.17208 4.78125 4.78833 4.95125 5.37625L4.10125 6.22625C3.81083 5.37625 3.62667 4.47667 3.56292 3.54167H4.6325ZM11.6167 12.0558C12.2187 12.2258 12.835 12.3321 13.4583 12.3746V13.43C12.5233 13.3662 11.6237 13.1821 10.7667 12.8987L11.6167 12.0558ZM5.3125 2.125H2.83333C2.44375 2.125 2.125 2.44375 2.125 2.83333C2.125 9.48458 7.51542 14.875 14.1667 14.875C14.5562 14.875 14.875 14.5562 14.875 14.1667V11.6946C14.875 11.305 14.5562 10.9862 14.1667 10.9862C13.2883 10.9862 12.4312 10.8446 11.6379 10.5825C11.5671 10.5542 11.4892 10.5471 11.4183 10.5471C11.2342 10.5471 11.0571 10.6179 10.9154 10.7525L9.35708 12.3108C7.3525 11.2837 5.70917 9.6475 4.68917 7.64292L6.2475 6.08458C6.44583 5.88625 6.5025 5.61 6.42458 5.36208C6.1625 4.56875 6.02083 3.71875 6.02083 2.83333C6.02083 2.44375 5.70208 2.125 5.3125 2.125Z" fill="#1C1C1C"/>
</svg>
