<svg >
<g>
<path d="M27.9425 0.224285C27.8222 0.0118248 27.5526 -0.0628235 27.3399 0.0574887L23.8032 2.06047C23.6647 2.139 23.579 2.28589 23.579 2.44514V5.70035H23.0068V5.37617C23.0068 4.74239 22.4912 4.22669 21.8574 4.22669C21.2236 4.22669 20.7079 4.74234 20.7079 5.37617V6.90878C20.7079 7.54261 21.2235 8.05826 21.8574 8.05826C22.4912 8.05826 23.0068 7.54261 23.0068 6.90878V6.58459H23.579V7.75026C22.9865 7.7957 22.518 8.29128 22.518 8.89525V16.1804V19.0342C22.518 19.5754 22.8944 20.0292 23.3989 20.1506C23.3305 21.6065 22.1247 22.77 20.652 22.77H18.1968V12.5148V7.88315C18.1968 7.24937 17.6811 6.73367 17.0473 6.73367H13.1213V6.07124C13.1213 5.43747 12.6057 4.92177 11.9718 4.92177H6.2249C5.59113 4.92177 5.07543 5.43742 5.07543 6.07124V6.73367H1.14947C0.515647 6.73367 0 7.24932 0 7.88315V12.5148V25.4236C0 26.0406 0.489124 26.5443 1.09982 26.5705V26.8505C1.09982 27.4844 1.61547 28 2.24929 28H4.54797C5.1818 28 5.69744 27.4844 5.69744 26.8505V26.5731H6.27795C6.52218 26.5731 6.72004 26.3751 6.72004 26.131C6.72004 25.8868 6.52218 25.6889 6.27795 25.6889H5.2554H1.54197H1.14947C1.00324 25.6889 0.884186 25.5699 0.884186 25.4236V12.9569H12.2906C12.5348 12.9569 12.7326 12.759 12.7326 12.5148C12.7326 12.2707 12.5348 12.0727 12.2906 12.0727H0.884241V7.88315C0.884241 7.73686 1.00324 7.61791 1.14953 7.61791H17.0473C17.1935 7.61791 17.3125 7.73686 17.3125 7.88315V12.0727H13.7643C13.52 12.0727 13.3222 12.2706 13.3222 12.5148C13.3222 12.7591 13.5201 12.9569 13.7643 12.9569H17.3125V22.77H15.6748C15.4836 22.1234 14.8846 21.65 14.1768 21.65C13.3155 21.65 12.6147 22.3508 12.6147 23.2121C12.6147 24.0735 13.3155 24.7742 14.1768 24.7742C14.8847 24.7742 15.4836 24.3008 15.6748 23.6542H17.3125V25.4236C17.3125 25.5698 17.1935 25.6889 17.0473 25.6889H16.6548H12.9413H7.69277C7.44853 25.6889 7.25067 25.8867 7.25067 26.131C7.25067 26.3752 7.44853 26.5731 7.69277 26.5731H12.4992V26.8505C12.4992 27.4844 13.0149 28 13.6487 28H15.9474C16.5813 28 17.0969 27.4844 17.0969 26.8505V26.5705C17.7076 26.5442 18.1967 26.0406 18.1967 25.4236V23.6542H20.652C22.6116 23.6542 24.2131 22.0951 24.283 20.1524C24.7908 20.0334 25.1705 19.5778 25.1705 19.0341V16.1804V12.8932C25.1705 12.649 24.9727 12.4511 24.7284 12.4511C24.4842 12.4511 24.2863 12.649 24.2863 12.8932V15.7382H23.4022V8.89519C23.4022 8.7489 23.5212 8.6299 23.6674 8.6299H24.0211C24.1673 8.6299 24.2863 8.74885 24.2863 8.89519V11.4785C24.2863 11.7227 24.4842 11.9206 24.7284 11.9206C24.9726 11.9206 25.1705 11.7227 25.1705 11.4785V8.89519C25.1705 8.41799 24.8781 8.008 24.4631 7.83437V6.58443H24.7284C24.9726 6.58443 25.1705 6.38657 25.1705 6.14234C25.1705 5.8981 24.9726 5.70024 24.7284 5.70024H24.4631V2.70288L27.7756 0.82694C27.9881 0.706628 28.0628 0.436801 27.9425 0.224285ZM22.1226 6.90878C22.1226 7.05501 22.0036 7.17407 21.8573 7.17407C21.711 7.17407 21.592 7.05507 21.592 6.90878V5.37617C21.592 5.22988 21.711 5.11088 21.8573 5.11088C22.0036 5.11088 22.1226 5.22982 22.1226 5.37617V6.90878ZM1.98406 26.5731H4.81326V26.8505C4.81326 26.9968 4.69426 27.1158 4.54797 27.1158H2.24935C2.10311 27.1158 1.98406 26.9968 1.98406 26.8505V26.5731ZM12.2371 6.47899H5.95972V6.07119C5.95972 5.9249 6.07872 5.8059 6.22501 5.8059H11.9719C12.1181 5.8059 12.2372 5.92484 12.2372 6.07119V6.47899H12.2371ZM14.1768 23.6543H14.6895C14.5652 23.7983 14.3816 23.8901 14.1768 23.8901C13.803 23.8901 13.4989 23.586 13.4989 23.2122C13.4989 22.8384 13.803 22.5343 14.1768 22.5343C14.3817 22.5343 14.5652 22.626 14.6895 22.7701H14.1768C13.9326 22.7701 13.7347 22.968 13.7347 23.2122C13.7347 23.4564 13.9326 23.6543 14.1768 23.6543ZM16.2127 26.8505C16.2127 26.9967 16.0937 27.1158 15.9474 27.1158H13.6487C13.5025 27.1158 13.3834 26.9968 13.3834 26.8505V26.573H16.2126V26.8505H16.2127ZM23.4022 16.6225H24.2863V19.0342C24.2863 19.1804 24.1673 19.2995 24.0211 19.2995H23.6674C23.5212 19.2995 23.4021 19.1805 23.4021 19.0342V16.6225H23.4022Z" fill="#0D6EFD"/>
<path d="M15.091 9.85994C15.091 8.99862 14.3902 8.29785 13.5289 8.29785C12.6676 8.29785 11.9668 8.99862 11.9668 9.85994C11.9668 10.7213 12.6676 11.422 13.5289 11.422C14.3902 11.422 15.091 10.7213 15.091 9.85994ZM12.851 9.85994C12.851 9.48615 13.1551 9.18204 13.5289 9.18204C13.9027 9.18204 14.2068 9.48615 14.2068 9.85994C14.2068 10.2337 13.9027 10.5378 13.5289 10.5378C13.1551 10.5378 12.851 10.2337 12.851 9.85994Z" fill="#0D6EFD"/>
<path d="M7.50586 9.85994C7.50586 10.7213 8.20662 11.422 9.06795 11.422C9.92928 11.422 10.63 10.7213 10.63 9.85994C10.63 8.99862 9.92928 8.29785 9.06795 8.29785C8.20662 8.29785 7.50586 8.99856 7.50586 9.85994ZM9.74585 9.85994C9.74585 10.2337 9.44174 10.5378 9.06795 10.5378C8.69416 10.5378 8.39005 10.2337 8.39005 9.85994C8.39005 9.48615 8.69416 9.18204 9.06795 9.18204C9.44174 9.18204 9.74585 9.48615 9.74585 9.85994Z" fill="#0D6EFD"/>
<path d="M3.04492 9.85994C3.04492 10.7213 3.74569 11.422 4.60701 11.422C5.46834 11.422 6.1691 10.7213 6.1691 9.85994C6.1691 8.99862 5.46834 8.29785 4.60701 8.29785C3.74569 8.2978 3.04492 8.99856 3.04492 9.85994ZM5.28492 9.85994C5.28492 10.2337 4.9808 10.5378 4.60701 10.5378C4.23322 10.5378 3.92911 10.2337 3.92911 9.85994C3.92911 9.48615 4.23322 9.18204 4.60701 9.18204C4.9808 9.18204 5.28492 9.48615 5.28492 9.85994Z" fill="#0D6EFD"/>
<path d="M3.62666 15.9838H10.4549C10.6991 15.9838 10.897 15.7859 10.897 15.5417C10.897 15.2975 10.6991 15.0996 10.4549 15.0996H3.62666C3.38243 15.0996 3.18457 15.2975 3.18457 15.5417C3.18457 15.7858 3.38243 15.9838 3.62666 15.9838Z" />
<path d="M3.62666 17.8529H10.4549C10.6991 17.8529 10.897 17.6551 10.897 17.4108C10.897 17.1666 10.6991 16.9688 10.4549 16.9688H3.62666C3.38243 16.9688 3.18457 17.1666 3.18457 17.4108C3.18457 17.655 3.38243 17.8529 3.62666 17.8529Z" />
<path d="M3.62666 19.7231H10.4549C10.6991 19.7231 10.897 19.5252 10.897 19.281C10.897 19.0368 10.6991 18.8389 10.4549 18.8389H3.62666C3.38243 18.8389 3.18457 19.0368 3.18457 19.281C3.18457 19.5251 3.38243 19.7231 3.62666 19.7231Z" />
<path d="M3.62666 21.5922H10.4549C10.6991 21.5922 10.897 21.3943 10.897 21.1501C10.897 20.9059 10.6991 20.708 10.4549 20.708H3.62666C3.38243 20.708 3.18457 20.906 3.18457 21.1501C3.18457 21.3943 3.38243 21.5922 3.62666 21.5922Z" />
<path d="M3.62666 23.4623H10.4549C10.6991 23.4623 10.897 23.2644 10.897 23.0202C10.897 22.776 10.6991 22.5781 10.4549 22.5781H3.62666C3.38243 22.5781 3.18457 22.776 3.18457 23.0202C3.18457 23.2645 3.38243 23.4623 3.62666 23.4623Z" />
<path d="M13.3806 20.6576H14.9721C15.2164 20.6576 15.4142 20.4597 15.4142 20.2155C15.4142 19.9714 15.2163 19.7734 14.9721 19.7734H13.3806C13.1363 19.7734 12.9385 19.9713 12.9385 20.2155C12.9385 20.4597 13.1363 20.6576 13.3806 20.6576Z" />
<path d="M14.9721 17.9033H13.3806C13.1363 17.9033 12.9385 18.1012 12.9385 18.3454C12.9385 18.5896 13.1363 18.7875 13.3806 18.7875H14.9721C15.2164 18.7875 15.4142 18.5896 15.4142 18.3454C15.4142 18.1012 15.2164 17.9033 14.9721 17.9033Z" />
<path d="M14.9721 16.0342H13.3806C13.1363 16.0342 12.9385 16.232 12.9385 16.4763C12.9385 16.7205 13.1363 16.9184 13.3806 16.9184H14.9721C15.2164 16.9184 15.4142 16.7205 15.4142 16.4763C15.4142 16.2321 15.2164 16.0342 14.9721 16.0342Z" />
</g>
</svg>
