<svg >
<path d="M11.7188 11.25C11.4605 11.25 11.25 11.4605 11.25 11.7188C11.25 11.977 11.4605 12.1875 11.7188 12.1875C11.977 12.1875 12.1875 11.977 12.1875 11.7188C12.1875 11.4605 11.977 11.25 11.7188 11.25Z" />
<path d="M21.6562 0H3.28125C1.98891 0 0.9375 1.05141 0.9375 2.34375V18.4255C0.358125 19.0175 0 19.827 0 20.7188C0 22.528 1.47197 24 3.28125 24C4.93134 24 6.30028 22.7754 6.52847 21.1875H17.4375V23.0625H16.9688C16.7099 23.0625 16.5 23.2724 16.5 23.5312C16.5 23.7901 16.7099 24 16.9688 24H18.8438C19.1026 24 19.3125 23.7901 19.3125 23.5312C19.3125 23.2724 19.1026 23.0625 18.8438 23.0625H18.375V21.1875H23.5312C23.7901 21.1875 24 20.9776 24 20.7188V2.34375C24 1.05141 22.9486 0 21.6562 0ZM3.28125 23.0625C1.98891 23.0625 0.9375 22.0111 0.9375 20.7188C0.9375 19.4264 1.98891 18.375 3.28125 18.375C4.57359 18.375 5.625 19.4264 5.625 20.7188C5.625 22.0111 4.57359 23.0625 3.28125 23.0625ZM7.73438 20.25H6.52847C6.30023 18.6621 4.93134 17.4375 3.28125 17.4375C2.77823 17.4375 2.30147 17.5516 1.875 17.7547V13.6875H2.8125V15.5625C2.8125 15.8213 3.02236 16.0312 3.28125 16.0312H4.6875V16.5938C4.6875 16.8526 4.89736 17.0625 5.15625 17.0625H7.73438V20.25ZM3.75 15.0938V11.3438H4.6875V15.0938H3.75ZM5.625 16.125V10.3125H6.5625V16.125H5.625ZM9.84375 11.25H7.5V10.3125H13.125V16.125H7.5V12.1875H9.84375C10.102 12.1875 10.3125 11.977 10.3125 11.7188C10.3125 11.4605 10.102 11.25 9.84375 11.25ZM16.2109 16.0312H17.4375V17.4375H16.1719C15.913 17.4375 15.7031 17.6474 15.7031 17.9062V18.375H10.6406V17.0625H13.5938C14.6039 17.0625 15.5242 16.6707 16.2109 16.0312ZM14.0625 16.0872V10.3503C15.4429 10.575 16.5 11.7758 16.5 13.2188C16.5 14.6617 15.4429 15.8625 14.0625 16.0872ZM23.0625 20.25H8.67188V17.0625H9.70312V18.8438C9.70312 19.1026 9.91298 19.3125 10.1719 19.3125H16.1719C16.4307 19.3125 16.6406 19.1026 16.6406 18.8438V18.375H17.4375V18.8438C17.4375 19.1026 17.6474 19.3125 17.9062 19.3125H23.0625V20.25ZM23.0625 18.375H18.375V16.0312H23.0625V18.375ZM23.0625 15.0938H16.9499C17.268 14.5263 17.4375 13.8841 17.4375 13.2188C17.4375 12.5534 17.268 11.9112 16.9499 11.3438H23.0625V15.0938ZM23.0625 10.4062H16.2092C15.5227 9.76706 14.6035 9.375 13.5938 9.375H5.15625C4.89736 9.375 4.6875 9.58491 4.6875 9.84375V10.4062H3.28125C3.02236 10.4062 2.8125 10.6162 2.8125 10.875V12.75H1.875V5.625H23.0625V10.4062ZM23.0625 4.6875H1.875V3.75H23.0625V4.6875ZM23.0625 2.8125H1.875V2.34375C1.875 1.56834 2.50584 0.9375 3.28125 0.9375H21.6562C22.4317 0.9375 23.0625 1.56834 23.0625 2.34375V2.8125Z"/>
<path d="M3.28125 19.3125C2.50584 19.3125 1.875 19.9433 1.875 20.7188C1.875 21.4942 2.50584 22.125 3.28125 22.125C4.05666 22.125 4.6875 21.4942 4.6875 20.7188C4.6875 19.9433 4.05666 19.3125 3.28125 19.3125ZM3.28125 21.1875C3.02278 21.1875 2.8125 20.9772 2.8125 20.7188C2.8125 20.4603 3.02278 20.25 3.28125 20.25C3.53972 20.25 3.75 20.4603 3.75 20.7188C3.75 20.9772 3.53972 21.1875 3.28125 21.1875Z"/>
<path d="M20.7188 6.65625C19.9433 6.65625 19.3125 7.28709 19.3125 8.0625C19.3125 8.83791 19.9433 9.46875 20.7188 9.46875C21.4942 9.46875 22.125 8.83791 22.125 8.0625C22.125 7.28709 21.4942 6.65625 20.7188 6.65625ZM20.7188 8.53125C20.4603 8.53125 20.25 8.32097 20.25 8.0625C20.25 7.80403 20.4603 7.59375 20.7188 7.59375C20.9772 7.59375 21.1875 7.80403 21.1875 8.0625C21.1875 8.32097 20.9772 8.53125 20.7188 8.53125Z"/>
<path d="M17.9062 7.3125H16.0312C15.7724 7.3125 15.5625 7.52241 15.5625 7.78125C15.5625 8.04009 15.7724 8.25 16.0312 8.25H17.9062C18.1651 8.25 18.375 8.04009 18.375 7.78125C18.375 7.52241 18.1651 7.3125 17.9062 7.3125Z" />
<path d="M13.5938 7.3125H5.15625C4.89736 7.3125 4.6875 7.52241 4.6875 7.78125C4.6875 8.04009 4.89736 8.25 5.15625 8.25H13.5938C13.8526 8.25 14.0625 8.04009 14.0625 7.78125C14.0625 7.52241 13.8526 7.3125 13.5938 7.3125Z"/>
</svg>
