<svg >
<path d="M20.5161 12.3871H18.9677V11.2258H20.9032C21.5435 11.2258 22.0645 10.7048 22.0645 10.0645V3.79974C22.5139 3.63948 22.8387 3.21368 22.8387 2.70968V1.16129C22.8387 0.521032 22.3177 0 21.6774 0C21.0372 0 20.5161 0.521032 20.5161 1.16129V2.70968C20.5161 3.21368 20.8409 3.63948 21.2903 3.79974V10.0645C21.2903 10.2778 21.1165 10.4516 20.9032 10.4516H18.9677V9.62245C19.6335 9.44942 20.129 8.84826 20.129 8.12903C20.129 7.2751 19.4346 6.58065 18.5806 6.58065C17.7267 6.58065 17.0323 7.2751 17.0323 8.12903C17.0323 8.84826 17.5277 9.44942 18.1935 9.62245V12.3871H15.4839V10.8387H16.2581V5.41935H15.4839V4.64516H15.871C16.5112 4.64516 17.0323 4.12413 17.0323 3.48387C17.0323 2.84361 16.5112 2.32258 15.871 2.32258H15.4126C15.2524 1.87316 14.8266 1.54839 14.3226 1.54839H13.5484C13.0444 1.54839 12.6186 1.87316 12.4583 2.32258H6.89652C6.73626 1.87316 6.31045 1.54839 5.80645 1.54839H5.03226C4.392 1.54839 3.87097 2.06942 3.87097 2.70968V5.41935H3.09677V10.8387H3.87097V12.3871H3.48387C1.5631 12.3871 0 13.9502 0 15.871V17.4194C0 19.3401 1.5631 20.9032 3.48387 20.9032H4.28903C4.27084 21.0302 4.25806 21.1587 4.25806 21.2903C4.25806 22.7845 5.47355 24 6.96774 24C8.46194 24 9.67742 22.7845 9.67742 21.2903C9.67742 21.1587 9.66465 21.0302 9.64645 20.9032H16.4059L17.9543 24H20.129V20.9032H20.5161C22.4369 20.9032 24 19.3401 24 17.4194V15.871C24 13.9502 22.4369 12.3871 20.5161 12.3871ZM21.2903 1.16129C21.2903 0.948 21.4641 0.774194 21.6774 0.774194C21.8907 0.774194 22.0645 0.948 22.0645 1.16129V2.70968C22.0645 2.92297 21.8907 3.09677 21.6774 3.09677C21.4641 3.09677 21.2903 2.92297 21.2903 2.70968V1.16129ZM15.4839 3.09677H15.871C16.0843 3.09677 16.2581 3.27058 16.2581 3.48387C16.2581 3.69716 16.0843 3.87097 15.871 3.87097H15.4839V3.09677ZM3.09677 20.0981C1.78568 19.9092 0.774194 18.7815 0.774194 17.4194V15.871C0.774194 14.5088 1.78568 13.3812 3.09677 13.1923V20.0981ZM17.8065 8.12903C17.8065 7.70206 18.1537 7.35484 18.5806 7.35484C19.0076 7.35484 19.3548 7.70206 19.3548 8.12903C19.3548 8.556 19.0076 8.90323 18.5806 8.90323C18.1537 8.90323 17.8065 8.556 17.8065 8.12903ZM15.4839 8.51613H14.7097V9.29032H15.4839V10.0645H12.3871V9.29032H13.9355V8.51613H12.3871V7.74194H15.4839V8.51613ZM14.7097 10.8387V12.3871H13.9355V10.8387H14.7097ZM11.6129 10.0645V10.8387H13.1613V12.3871H6.19355V10.8387H7.74194V10.0645H11.6129ZM7.74194 9.29032V6.96774H11.6129V9.29032H7.74194ZM13.1613 2.70968C13.1613 2.49639 13.3351 2.32258 13.5484 2.32258H14.3226C14.5359 2.32258 14.7097 2.49639 14.7097 2.70968V3.09677H13.1613V2.70968ZM13.1613 3.87097H14.7097V5.41935H13.1613V3.87097ZM15.4839 6.19355V6.96774H12.3871V6.19355H15.4839ZM6.96774 3.09677H12.3871V3.87097H6.96774V3.09677ZM6.96774 4.64516H12.3871V5.41935H11.6129V6.19355H7.74194V5.41935H6.96774V4.64516ZM4.64516 2.70968C4.64516 2.49639 4.81897 2.32258 5.03226 2.32258H5.80645C6.01974 2.32258 6.19355 2.49639 6.19355 2.70968V3.09677H4.64516V2.70968ZM4.64516 3.87097H6.19355V5.41935H4.64516V3.87097ZM3.87097 7.74194H4.64516V6.96774H3.87097V6.19355H6.96774V6.96774H5.41935V7.74194H6.96774V8.51613H3.87097V7.74194ZM3.87097 9.29032H6.96774V10.0645H3.87097V9.29032ZM5.41935 10.8387V12.3871H4.64516V10.8387H5.41935ZM6.96774 23.2258C5.90052 23.2258 5.03226 22.3575 5.03226 21.2903C5.03226 20.2231 5.90052 19.3548 6.96774 19.3548C8.03497 19.3548 8.90323 20.2231 8.90323 21.2903C8.90323 22.3575 8.03497 23.2258 6.96774 23.2258ZM19.3548 23.2258H18.4328L17.2715 20.9032H19.3548V23.2258ZM23.2258 17.4194C23.2258 18.7815 22.2143 19.9092 20.9032 20.0981V18.5806H20.129V20.129H9.41226C8.97639 19.2151 8.04581 18.5806 6.96774 18.5806C5.88968 18.5806 4.9591 19.2151 4.52323 20.129H3.87097V13.1613H20.129V17.8065H20.9032V13.1923C22.2143 13.3812 23.2258 14.5088 23.2258 15.871V17.4194Z"/>
<path d="M13.9355 15.4834V19.3544H19.3549V15.4834H13.9355ZM18.5807 18.5802H14.7097V16.2576H18.5807V18.5802Z"/>
<path d="M18.9677 13.9355H5.03223V14.7097H18.9677V13.9355Z"/>
<path d="M12.7742 15.4834H5.03223V16.2576H12.7742V15.4834Z"/>
<path d="M12.7742 17.0322H5.03223V17.8064H12.7742V17.0322Z"/>
</svg>
