<svg>
<path d="M6.75 11.625C6.95711 11.625 7.125 11.4571 7.125 11.25C7.125 11.0429 6.95711 10.875 6.75 10.875C6.54289 10.875 6.375 11.0429 6.375 11.25C6.375 11.4571 6.54289 11.625 6.75 11.625Z" fill="#ACACAC"/>
<path d="M9.375 11.25C9.375 9.8025 8.1975 8.625 6.75 8.625C5.3025 8.625 4.125 9.8025 4.125 11.25C4.125 12.6975 5.3025 13.875 6.75 13.875C8.1975 13.875 9.375 12.6975 9.375 11.25ZM4.875 11.25C4.875 10.2161 5.71613 9.375 6.75 9.375C7.78387 9.375 8.625 10.2161 8.625 11.25C8.625 12.2839 7.78387 13.125 6.75 13.125C5.71613 13.125 4.875 12.2839 4.875 11.25Z"/>
<path d="M10.875 15C10.875 17.2744 12.7256 19.125 15 19.125C17.2744 19.125 19.125 17.2744 19.125 15C19.125 12.7256 17.2744 10.875 15 10.875C12.7256 10.875 10.875 12.7256 10.875 15ZM14.7739 11.6366L15.3307 12.75L14.7536 13.9042C14.553 13.9492 14.3734 14.0486 14.229 14.1851L13.2217 13.1929L12.0472 13.3699C12.5884 12.393 13.6001 11.715 14.7739 11.6366ZM15 15.375C14.7934 15.375 14.625 15.2066 14.625 15C14.625 14.7934 14.7934 14.625 15 14.625C15.2066 14.625 15.375 14.7934 15.375 15C15.375 15.2066 15.2066 15.375 15 15.375ZM11.625 15C11.625 14.715 11.6644 14.4401 11.7311 14.1754L12.9623 13.9901L13.8851 14.8991C13.8821 14.9329 13.875 14.9655 13.875 15C13.875 15.1729 13.9174 15.3345 13.9871 15.4811L12.7316 16.1332L12.5374 17.3006C11.9734 16.6969 11.625 15.8895 11.625 15ZM13.206 17.8534L13.41 16.626L14.5545 16.032C14.691 16.0912 14.8414 16.125 15 16.125C15.0495 16.125 15.0967 16.1167 15.1444 16.1104L15.3765 17.5076L16.428 18.0536C15.9937 18.2576 15.5107 18.375 15 18.375C14.3404 18.375 13.7265 18.1819 13.206 17.8534ZM17.1611 17.589L16.0545 17.0149L15.8422 15.7376C15.9724 15.5891 16.0661 15.4084 16.1036 15.2062L17.5005 15.4166L18.3461 14.5837C18.3634 14.7206 18.375 14.859 18.375 15C18.375 16.0391 17.9021 16.9695 17.1611 17.589ZM18.1301 13.7445L17.2421 14.619L15.9626 14.4263C15.8595 14.2538 15.7125 14.1135 15.5359 14.0167L16.1693 12.75L15.6379 11.6873C16.7741 11.9059 17.7079 12.6953 18.1301 13.7445Z"/>
<path d="M23.625 4.02713V3.87112C23.625 3.18412 23.0659 2.625 22.3789 2.625C22.1411 2.625 21.9097 2.6925 21.7095 2.82L17.1356 5.73075L16.6099 5.205C16.3976 4.992 16.1149 4.875 15.8141 4.875H11.7802L11.3599 4.45463C11.1476 4.242 10.8649 4.125 10.5641 4.125H9.375V2.625C9.78862 2.625 10.125 2.28863 10.125 1.875V1.125C10.125 0.711375 9.78862 0.375 9.375 0.375H4.875C4.46137 0.375 4.125 0.711375 4.125 1.125V1.875C4.125 2.28863 4.46137 2.625 4.875 2.625V4.125H4.5C2.22563 4.125 0.375 5.97563 0.375 8.25V12.375C0.375 12.7886 0.711375 13.125 1.125 13.125H2.50688L0.84 19.125H0.375V19.875H2.1615C2.59013 19.875 2.97562 19.6369 3.16762 19.2533L3.50325 18.5824C3.567 18.4545 3.69563 18.375 3.8385 18.375H4.323C4.49662 18.375 4.67062 18.3341 4.82625 18.2561L5.259 18.0394C5.31113 18.0139 5.36925 18 5.45963 18C5.62125 18 5.7645 18.1031 5.81512 18.2561L5.84812 18.3559C6.0015 18.816 6.4305 19.125 6.91537 19.125H7.18913C7.4895 19.125 7.77225 19.008 7.98487 18.7954L8.29537 18.4849C8.36625 18.414 8.46075 18.375 8.56087 18.375H8.6895C8.78963 18.375 8.88412 18.414 8.955 18.4849L10.0534 19.5833C10.2292 19.7591 10.4621 19.8731 10.7096 19.9039L12.7706 20.1615C13.4543 20.4585 14.2076 20.625 15 20.625C15.6075 20.625 16.1914 20.5252 16.7396 20.3464L20.2256 19.8814C20.2586 19.8772 20.2916 19.875 20.3246 19.875H21.75C21.8674 19.875 21.9795 19.9309 22.05 20.025L22.8 21.0251C22.8484 21.0896 22.875 21.1695 22.875 21.2501V22.5C22.875 22.7066 22.7066 22.875 22.5 22.875H0.375V23.625H22.5C23.1203 23.625 23.625 23.1203 23.625 22.5V21.2501C23.625 21.0082 23.5451 20.7686 23.4 20.5751L22.65 19.575C22.4385 19.293 22.1021 19.125 21.75 19.125H20.3246C20.2583 19.125 20.1919 19.1295 20.1262 19.1381L18.5662 19.3463C19.8221 18.3139 20.625 16.749 20.625 15C20.625 12.3195 18.7387 10.0747 16.2251 9.51337L23.058 5.07187C23.4131 4.84125 23.625 4.45088 23.625 4.02713ZM15.375 8.625V9.39412C15.2505 9.38587 15.1267 9.375 15 9.375C14.052 9.375 13.1595 9.61312 12.375 10.029V9.75C12.375 9.12975 12.8798 8.625 13.5 8.625H15.375ZM15.375 7.875H15.1627L20.2612 4.6305L20.8961 5.583L16.125 8.68388V8.625C16.125 8.21137 15.7886 7.875 15.375 7.875ZM16.0796 5.73488L16.4876 6.14288L13.7655 7.875H13.5C12.4661 7.875 11.625 8.71613 11.625 9.75V10.5109C11.3539 10.7153 11.1023 10.9429 10.872 11.1923C10.8581 10.2083 10.4996 9.30638 9.90975 8.60363C9.98063 8.61338 10.0511 8.625 10.125 8.625C10.9523 8.625 11.625 7.95225 11.625 7.125C11.625 6.75112 11.4825 6.41287 11.2552 6.15L11.7802 5.625H15.8141C15.9143 5.625 16.0088 5.664 16.0796 5.73488ZM3.74513 14.067L3.414 15.2587L2.84925 14.694L3.2175 13.3688C3.36862 13.62 3.54525 13.854 3.74513 14.067ZM3.18338 16.0886L2.76187 17.6063L2.19713 17.0415L2.61862 15.5235L3.18338 16.0886ZM3.375 11.25C3.375 9.38925 4.88925 7.875 6.75 7.875C8.61075 7.875 10.125 9.38925 10.125 11.25C10.125 13.1108 8.61075 14.625 6.75 14.625C4.88925 14.625 3.375 13.1108 3.375 11.25ZM10.125 6.375C10.5386 6.375 10.875 6.71137 10.875 7.125C10.875 7.53863 10.5386 7.875 10.125 7.875C9.71138 7.875 9.375 7.53863 9.375 7.125C9.375 6.71137 9.71138 6.375 10.125 6.375ZM4.875 1.125H9.375L9.37537 1.875H4.875V1.125ZM5.625 2.625H8.625V4.125H5.625V2.625ZM10.5641 4.875C10.6642 4.875 10.7587 4.914 10.8296 4.98488L11.0948 5.25L10.6271 5.71762C10.4693 5.66138 10.302 5.625 10.125 5.625H2.3835C2.96287 5.157 3.699 4.875 4.5 4.875H10.5641ZM1.69575 6.375H8.83387C8.7045 6.59662 8.625 6.8505 8.625 7.125C8.625 7.30125 8.661 7.46812 8.71725 7.62525C8.13225 7.3065 7.46175 7.125 6.75 7.125C5.151 7.125 3.76462 8.0415 3.08025 9.375H1.125V8.25C1.125 7.55662 1.33575 6.91162 1.69575 6.375ZM1.125 10.125H2.78475C2.68313 10.4831 2.625 10.8596 2.625 11.25C2.625 11.6404 2.68313 12.0169 2.78475 12.375H1.125V10.125ZM1.61812 19.125L1.96613 17.8717L2.53087 18.4365L2.35462 19.071C2.29762 19.1055 2.23162 19.125 2.1615 19.125H1.61812ZM10.8019 19.1599C10.7194 19.1497 10.6418 19.1115 10.5833 19.053L9.48487 17.9546C9.27262 17.742 8.98987 17.625 8.68913 17.625H8.5605C8.26012 17.625 7.97737 17.742 7.76475 17.9546L7.45425 18.2651C7.38375 18.336 7.28925 18.375 7.18913 18.375H6.91537C6.75375 18.375 6.6105 18.2719 6.55988 18.1189L6.52688 18.0191C6.3735 17.559 5.9445 17.25 5.427 17.25C5.25338 17.25 5.07938 17.2909 4.92375 17.3689L4.491 17.5856C4.43887 17.6111 4.38075 17.625 4.323 17.625H3.8385C3.72938 17.625 3.62362 17.6407 3.52237 17.67L4.37137 14.6141C5.0445 15.0915 5.86387 15.375 6.75 15.375C7.7625 15.375 8.6895 15.0067 9.408 14.3993C9.387 14.5969 9.375 14.7971 9.375 15C9.375 16.6819 10.1209 18.1898 11.2946 19.2214L10.8019 19.1599ZM19.875 15C19.875 17.688 17.688 19.875 15 19.875C12.312 19.875 10.125 17.688 10.125 15C10.125 12.312 12.312 10.125 15 10.125C17.688 10.125 19.875 12.312 19.875 15ZM22.875 4.02713C22.875 4.19588 22.7906 4.35112 22.6493 4.443L21.525 5.17387L20.8942 4.22738L22.1122 3.45225C22.1921 3.40163 22.284 3.375 22.3789 3.375C22.6522 3.375 22.875 3.59775 22.875 3.87112V4.02713Z"/>
</svg>
