<svg>
<path d="M21.0607 16.2591C20.9684 16.1205 20.7786 16.0821 20.6395 16.1747C20.5138 16.2555 20.4573 16.453 20.5551 16.5959C21.1089 17.4269 21.6544 18.3005 22.1765 19.1933L21.516 19.5746C21.0711 18.8509 20.5578 18.209 19.9897 17.6666C19.151 16.9064 18.2329 16.1074 17.0559 16.3891C16.4034 16.5364 15.7406 16.2461 15.4067 15.6666C15.1109 15.1549 15.1411 14.5117 15.4838 14.0281C15.6175 13.7278 15.5341 13.408 15.4577 13.0025C15.2573 12.0995 14.5089 10.6792 13.9981 9.88632C13.957 9.82308 13.8945 9.77742 13.8215 9.75787L13.1132 9.56811L12.9863 9.34821L14.0879 8.71219C15.2095 9.96788 17.5283 12.5653 18.5888 13.882C18.7161 14.0411 18.8483 14.2106 18.9819 14.3849C19.0742 14.5059 19.2431 14.5396 19.3746 14.4637C19.5149 14.3869 19.5837 14.1657 19.4643 14.0159C19.3294 13.8392 19.1944 13.6667 19.0636 13.5027C18.5835 12.902 17.6482 11.8136 16.2842 10.2681C15.2711 9.12017 14.3792 8.12699 14.3754 8.12285C14.329 8.07108 14.2656 8.03652 14.1973 8.02577C14.1289 8.01478 14.058 8.02802 13.9977 8.0628L12.4195 8.97399L10.8413 9.88519C10.7169 9.95698 10.6598 10.106 10.7044 10.2424C10.7208 10.2927 12.352 15.2875 13.0195 16.9922C13.4545 18.1035 14.2215 19.8817 15.4054 22.0426C15.4446 22.1142 15.5112 22.1671 15.5899 22.1891C15.6686 22.2111 15.7528 22.2005 15.8236 22.1597L20.6542 19.3708C20.8207 19.6066 20.9852 19.8619 21.1454 20.1393L21.7529 21.1914C21.8368 21.3367 22.0226 21.3865 22.1678 21.3026L23.3515 20.6192C23.4967 20.5353 23.5465 20.3496 23.4627 20.2043L22.8552 19.1521C22.2805 18.1568 21.6768 17.1835 21.0607 16.2591ZM18.3205 17.1478C18.6409 17.3379 19.0228 17.6053 19.4287 17.974L16.7095 19.5439C16.5894 18.9908 16.5517 18.5234 16.5478 18.1712C16.5433 17.7854 16.693 17.4082 16.9688 17.1094C16.9995 17.0763 17.0292 17.042 17.0577 17.0068C17.1019 16.9997 17.1459 16.9916 17.1897 16.9817C17.5873 16.8921 17.9889 16.9513 18.3205 17.1478ZM18.2931 20.0325L18.1867 19.3925L18.7559 19.0639L18.8623 19.7038L18.2931 20.0325ZM17.0681 20.7398C16.9908 20.5378 16.9245 20.3423 16.8678 20.154L17.6248 19.7169L17.7313 20.3569L17.0681 20.7398ZM13.5493 10.3138C13.6054 10.4042 13.6947 10.5504 13.8012 10.7348C14.153 11.3369 14.736 12.464 14.8917 13.2569C14.1534 12.6018 13.3574 11.2705 13.0147 10.6231L13.1279 10.2008L13.5493 10.3138ZM15.7897 21.4778C14.7053 19.4686 13.9953 17.8185 13.5852 16.7708C13.0067 15.2935 11.6898 11.2978 11.3585 10.288L12.4602 9.65194L12.5871 9.87179L12.3973 10.5801C12.3779 10.6528 12.3861 10.7301 12.4204 10.7971C12.4347 10.8252 12.7777 11.4923 13.2716 12.233C13.8321 13.0735 14.3502 13.6542 14.8163 13.9652C14.5057 14.5809 14.5241 15.3656 14.8806 15.9703C15.1746 16.4848 15.6983 16.8702 16.2937 16.9897C16.0592 17.3463 15.9355 17.7576 15.9404 18.1781C15.9476 18.8292 16.0596 19.8397 16.5357 21.0471L15.7897 21.4778ZM19.4242 19.3795L19.3177 18.7395L19.8778 18.4161C20.0128 18.5598 20.1489 18.715 20.2848 18.8826L19.4242 19.3795ZM22.7847 20.245L22.1271 20.6247L21.8234 20.0986L22.481 19.7189L22.7847 20.245Z"/>
<path d="M16.8734 15.1701C17.0187 15.0862 17.0685 14.9005 16.9846 14.7552C16.9007 14.6099 16.715 14.5602 16.5697 14.644C16.4244 14.7279 16.3746 14.9137 16.4585 15.0589C16.5424 15.2042 16.7281 15.254 16.8734 15.1701Z" />
<path d="M20.1849 15.5637C20.3302 15.4798 20.38 15.294 20.2961 15.1488C20.2122 15.0035 20.0265 14.9537 19.8812 15.0376C19.7359 15.1215 19.6862 15.3072 19.77 15.4525C19.8539 15.5978 20.0397 15.6475 20.1849 15.5637Z" />
<path d="M8.20644 16.1003C8.28027 15.9511 8.21866 15.7675 8.06893 15.6934C7.93608 15.6248 7.73681 15.6747 7.66197 15.8309C7.21918 16.7259 6.7353 17.6352 6.2232 18.5337L5.56271 18.1523C5.96707 17.4052 6.26625 16.6398 6.45198 15.8765C6.69099 14.7701 6.9239 13.5755 6.09144 12.6971C5.63759 12.2057 5.5576 11.4864 5.89254 10.9075C6.18781 10.3955 6.75989 10.1001 7.35005 10.155C7.67701 10.1207 7.91223 9.88856 8.22519 9.61969C8.90703 8.99459 9.7628 7.63634 10.1941 6.79753C10.2283 6.7303 10.2366 6.65339 10.217 6.58035L10.0272 5.87209L10.1542 5.65219L11.2558 6.28821C10.7291 7.88738 9.63912 11.1942 9.02907 12.771C8.95498 12.9608 8.87427 13.16 8.79013 13.3629C8.73149 13.5034 8.78672 13.6664 8.91824 13.7424C9.05491 13.8255 9.28085 13.7744 9.35092 13.5962C9.43645 13.391 9.51832 13.1878 9.59495 12.9925C9.87511 12.2764 10.3501 10.9222 11.0065 8.96825C11.4941 7.51686 11.9083 6.2479 11.91 6.24257C11.9316 6.1765 11.9298 6.10427 11.905 6.03979C11.8803 5.97502 11.8334 5.92022 11.7731 5.88544L10.1949 4.97425L8.61665 4.06305C8.49231 3.99127 8.33472 4.01633 8.23882 4.12314C8.20352 4.16248 4.69344 8.07256 3.5509 9.50302C2.806 10.4354 1.64953 11.9887 0.370127 14.0944C0.32767 14.1642 0.315169 14.2483 0.335469 14.3274C0.355728 14.4066 0.407035 14.4743 0.477819 14.5152L5.30835 17.3041C5.1874 17.5662 5.04857 17.8363 4.88845 18.1138L4.28098 19.1659C4.19711 19.3112 4.24691 19.497 4.39216 19.5808L5.57583 20.2642C5.72108 20.3481 5.90686 20.2983 5.99074 20.1531L6.5982 19.1009C7.17286 18.1056 7.71391 17.0961 8.20644 16.1003ZM6.06672 14.1716C6.06223 14.5441 6.02158 15.0085 5.90529 15.5444L3.1861 13.9745C3.60503 13.5939 3.99093 13.3276 4.29405 13.1481C4.62588 12.9513 5.02741 12.8923 5.42409 12.9818C5.46806 12.9918 5.51261 13.0004 5.5574 13.0075C5.58559 13.0422 5.61463 13.0762 5.64509 13.1092C5.92146 13.4087 6.07105 13.7862 6.06672 14.1716ZM3.55477 15.5902L4.05578 15.178L4.625 15.5067L4.12399 15.9188L3.55477 15.5902ZM2.32972 14.8829C2.46598 14.7151 2.60214 14.5599 2.73688 14.4165L3.49393 14.8536L2.99292 15.2658L2.32972 14.8829ZM9.59954 6.62261C9.54925 6.71633 9.46731 6.86682 9.36085 7.05121C9.01531 7.657 8.33071 8.7254 7.72184 9.25666C7.9201 8.28976 8.67502 6.93477 9.06429 6.31428L9.48658 6.20113L9.59954 6.62261ZM1.0514 14.1449C2.24923 12.2011 3.32326 10.7612 4.02552 9.88215C5.01567 8.64249 7.81753 5.50422 8.52643 4.7124L9.62812 5.34846L9.50119 5.56831L8.7929 5.75809C8.72021 5.77757 8.65733 5.82337 8.61646 5.88657C8.59936 5.91303 8.19305 6.54357 7.79853 7.34172C7.3509 8.24739 7.10707 8.98639 7.07084 9.54556C6.38226 9.58441 5.71186 9.99268 5.36643 10.6038C5.0679 11.1156 4.99596 11.7619 5.19018 12.3373C4.7641 12.3125 4.34607 12.411 3.98438 12.6255C3.42408 12.9573 2.605 13.5595 1.79733 14.5755L1.0514 14.1449ZM4.68584 16.2432L5.18685 15.831L5.74697 16.1544C5.69001 16.3432 5.62358 16.5386 5.54645 16.7401L4.68584 16.2432ZM5.61653 19.5863L4.95893 19.2066L5.26266 18.6806L5.92026 19.0602L5.61653 19.5863Z"/>
<path d="M7.05599 11.9299C7.20126 12.0138 7.38702 11.964 7.47089 11.8187C7.55477 11.6735 7.50499 11.4877 7.35972 11.4038C7.21445 11.3199 7.02869 11.3697 6.94481 11.515C6.86094 11.6603 6.91071 11.846 7.05599 11.9299Z" />
<path d="M8.37044 14.9944C8.51571 15.0782 8.70147 15.0284 8.78535 14.8832C8.86922 14.7379 8.81944 14.5521 8.67417 14.4683C8.5289 14.3844 8.34314 14.4342 8.25927 14.5794C8.17539 14.7247 8.22517 14.9105 8.37044 14.9944Z" />
</svg>
