<svg>
<path d="M23.6183 10.6429L23.5529 10.2578H20.8328L20.9195 10.7715C21.1006 11.8588 21.2156 12.9864 21.2621 14.1287H19.7419V10.2578C19.7419 9.61752 19.2209 9.09649 18.5806 9.09649H17.8065C17.5928 9.09649 17.4194 8.92268 17.4194 8.70939V7.9352C17.4194 7.29494 16.8983 6.77391 16.2581 6.77391H13.1613V5.61262H17.8065V3.29004H6.19355V5.61262H10.8387V6.77391H8.22039C7.77755 6.77391 7.37961 7.01972 7.18142 7.41572L6.83497 8.10823C6.76916 8.24023 6.63677 8.3223 6.48929 8.3223H4.64516C4.0049 8.3223 3.48387 8.84333 3.48387 9.48359V12.1933H2.32258V9.09649H0V17.6126H2.32258V14.5158H3.48387V17.6126C3.48387 18.2529 4.0049 18.7739 4.64516 18.7739H6.64723C6.74903 18.7739 6.8489 18.8153 6.9209 18.8873L8.40271 20.3691C8.62181 20.5886 8.91368 20.7094 9.22374 20.7094H18.5806C19.2209 20.7094 19.7419 20.1884 19.7419 19.5481V16.4513H21.2617C21.2226 17.3544 21.1405 18.2498 21.0159 19.118L20.844 20.3223H23.5618L23.7182 19.2276C23.9052 17.9173 24 16.5818 24 15.2583C24 13.7165 23.8715 12.1638 23.6183 10.6429ZM3.48387 13.7417H1.54839V16.8384H0.774194V9.87068H1.54839V12.9675H3.48387V13.7417ZM6.96774 4.83843V4.06423H17.0323V4.83843H12.3871V6.77391H11.6129V4.83843H6.96774ZM5.80645 17.9997H4.64516C4.43148 17.9997 4.25806 17.8259 4.25806 17.6126V9.48359C4.25806 9.2703 4.43148 9.09649 4.64516 9.09649H5.80645V11.032H7.35484C7.56852 11.032 7.74194 11.2058 7.74194 11.4191V15.29C7.74194 15.5033 7.56852 15.6771 7.35484 15.6771H5.80645V17.9997ZM9.67742 19.9352H9.22374C9.12193 19.9352 9.02245 19.8938 8.95006 19.8218L7.46826 18.34C7.24916 18.1205 6.95729 17.9997 6.64723 17.9997H6.58065V16.4513H7.35484C7.9951 16.4513 8.51613 15.9303 8.51613 15.29V11.4191C8.51613 10.7788 7.9951 10.2578 7.35484 10.2578H6.58065V9.0903C6.98594 9.05894 7.34361 8.8232 7.52787 8.45468L7.87432 7.76217C7.94052 7.63017 8.0729 7.5481 8.22039 7.5481H9.67742V19.9352ZM12.7742 19.9352H12V18.3868H11.2258V19.9352H10.4516V15.6771H11.2258V17.6126H12V15.6771H12.7742V19.9352ZM14.3226 19.9352H13.5484V15.6771H14.3226V19.9352ZM15.871 19.9352H15.0968V15.6771H15.871V19.9352ZM18.9677 19.5481C18.9677 19.7614 18.7943 19.9352 18.5806 19.9352H18.1935V17.2255H17.4194V19.9352H16.6452V15.6771H17.4194V16.4513H18.1935V15.6771H18.9677V19.5481ZM18.9677 14.9029H10.4516V14.1287H18.9677V14.9029ZM13.5484 13.3546V11.8062H15.871V13.3546H13.5484ZM18.9677 13.3546H16.6452V11.032H12.7742V13.3546H10.4516V9.87068H15.871V9.09649H10.4516V7.5481H16.2581C16.4717 7.5481 16.6452 7.72191 16.6452 7.9352V8.70939C16.6452 9.34965 17.1662 9.87068 17.8065 9.87068H18.5806C18.7943 9.87068 18.9677 10.0445 18.9677 10.2578V13.3546ZM22.9514 19.118L22.8902 19.5481H21.737L21.7827 19.2276C21.929 18.2033 22.0188 17.1427 22.0502 16.0755L22.0614 15.6771H19.7419V14.9029H22.0595L22.049 14.5054C22.0177 13.3271 21.9151 12.1607 21.7444 11.032H22.8968C23.1151 12.4267 23.2258 13.8469 23.2258 15.2583C23.2258 16.5454 23.1337 17.8441 22.9514 19.118Z"/>
<path d="M6.58083 12.9678H5.80664V13.742H6.58083V12.9678Z"/>
<path d="M11.9998 11.8066H11.2256V12.5808H11.9998V11.8066Z"/>
<path d="M18.1931 11.8066H17.4189V12.5808H18.1931V11.8066Z"/>
</svg>
