<svg>
<path d="M23.9998 19.5017C23.9998 18.8724 23.4878 18.3604 22.8584 18.3604H20.6215C20.4274 18.3604 20.27 18.5178 20.27 18.7119C20.27 18.9061 20.4274 19.0635 20.6215 19.0635H22.8584C23.1 19.0635 23.2966 19.2601 23.2966 19.5017V20.5206C23.2966 20.7622 23.1001 20.9588 22.8584 20.9588H1.1414C0.89971 20.9588 0.703118 20.7622 0.703118 20.5206V19.5017C0.703118 19.2601 0.89971 19.0635 1.1414 19.0635H18.9778C19.172 19.0635 19.3294 18.9061 19.3294 18.7119C19.3294 18.5178 19.172 18.3604 18.9778 18.3604H1.1414C0.512011 18.3604 0 18.8724 0 19.5017V20.5206C0 20.8269 0.121499 21.1052 0.318606 21.3104C0.121499 21.5156 0 21.7939 0 22.1002C0 22.7296 0.512011 23.2416 1.1414 23.2416H22.8584C23.4877 23.2416 23.9998 22.7296 23.9998 22.1002C23.9998 21.7939 23.8783 21.5156 23.6812 21.3104C23.8782 21.1051 23.9998 20.8268 23.9998 20.5205V19.5017ZM22.8584 22.5385H1.1414C0.89971 22.5385 0.703118 22.3419 0.703118 22.1002C0.703118 21.8586 0.89971 21.6619 1.1414 21.6619H22.8584C23.1 21.6619 23.2966 21.8585 23.2966 22.1002C23.2966 22.3419 23.1001 22.5385 22.8584 22.5385Z"/>
<path d="M1.13191 16.6506C1.83236 17.3471 2.75714 17.7434 3.73593 17.7664C3.76706 17.7672 3.79799 17.7675 3.82898 17.7675C4.8349 17.7674 5.7813 17.3827 6.50261 16.6781C7.24641 15.9516 7.656 14.979 7.656 13.9394C7.656 12.7638 7.11099 11.6514 6.18925 10.9276V3.12009C6.18925 1.81811 5.12998 0.758789 3.82795 0.758789C2.52596 0.758789 1.46669 1.81806 1.46669 3.12009V9.45983C1.46669 9.65398 1.62409 9.81139 1.81825 9.81139C2.0124 9.81139 2.16981 9.65398 2.16981 9.45983V3.12009C2.16981 2.20581 2.91366 1.46191 3.82799 1.46191C4.74233 1.46191 5.48613 2.20576 5.48613 3.12009V11.1037C5.48613 11.2176 5.5413 11.3244 5.63416 11.3903C6.4599 11.9766 6.95288 12.9295 6.95288 13.9394C6.95288 14.7881 6.61848 15.582 6.01131 16.1751C5.40434 16.7679 4.60227 17.0832 3.75243 17.0634C2.95449 17.0447 2.19985 16.721 1.62765 16.152C1.05541 15.583 0.72757 14.8302 0.70446 14.0324C0.674086 12.9852 1.16655 11.9975 2.02182 11.3903C2.18012 11.2779 2.21734 11.0584 2.10493 10.9001C1.99257 10.7418 1.77306 10.7045 1.61476 10.817C0.567493 11.5606 -0.035548 12.7702 0.00162349 14.0528C0.0300295 15.0315 0.431416 15.954 1.13191 16.6506Z"/>
<path d="M4.87649 3.11996C4.87649 2.54177 4.40611 2.07138 3.82791 2.07138C3.3301 2.06397 2.76644 2.50399 2.77886 3.11996V11.654C1.85346 12.0802 1.26162 13.041 1.31595 14.0743C1.38218 15.3328 2.3792 16.3532 3.63521 16.4478C3.70069 16.4527 3.76585 16.4551 3.83067 16.4551C4.46643 16.4551 5.06638 16.2204 5.53738 15.7834C6.04948 15.3083 6.3432 14.6362 6.3432 13.9396C6.3432 12.9494 5.76336 12.0605 4.87649 11.6538V3.11996ZM3.58332 2.87594C3.64875 2.81055 3.73561 2.7745 3.82786 2.7745C4.01836 2.7745 4.17333 2.92947 4.17333 3.11996V7.39445H3.48193V3.11996C3.48198 3.02772 3.51779 2.94123 3.58332 2.87594ZM5.64008 13.9395C5.64008 14.4412 5.42835 14.9254 5.05916 15.2679C4.68515 15.6149 4.19803 15.7849 3.68789 15.7466C2.78359 15.6785 2.06575 14.9437 2.01804 14.0374C1.97561 13.2306 2.4797 12.485 3.24385 12.2244C3.38621 12.1758 3.48193 12.042 3.48193 11.8916V8.09757H4.17333V11.8916C4.17333 12.042 4.26905 12.1758 4.4114 12.2244C5.1463 12.475 5.64008 13.1642 5.64008 13.9395Z" />
<path d="M10.7908 9.77929C11.3062 10.4814 11.7931 11.1446 11.8859 11.9734C12.0942 13.8347 10.8359 15.3624 10.8235 15.3772C10.6983 15.5256 10.7172 15.7474 10.8657 15.8726C10.9316 15.9282 11.0121 15.9553 11.0921 15.9553C11.1921 15.9553 11.2915 15.9129 11.361 15.8304C11.421 15.7592 12.8272 14.0628 12.5846 11.8952C12.471 10.8798 11.905 10.1088 11.3576 9.36318C10.844 8.66363 10.3589 8.00284 10.2999 7.20044C10.1215 4.77375 11.6296 3.57709 11.6976 3.52445C11.8516 3.40684 11.8813 3.18671 11.7641 3.0324C11.6466 2.87781 11.426 2.84776 11.2715 2.96523C11.1946 3.02368 9.39113 4.42861 9.59865 7.252C9.67247 8.25601 10.241 9.03038 10.7908 9.77929Z" />
<path d="M13.6375 9.77969C14.1529 10.4818 14.6398 11.1449 14.7325 11.9738C14.9409 13.8351 13.6825 15.3628 13.6701 15.3776C13.545 15.526 13.5639 15.7478 13.7123 15.873C13.7783 15.9286 13.8587 15.9557 13.9387 15.9557C14.0388 15.9557 14.1382 15.9133 14.2077 15.8308C14.2677 15.7596 15.6739 14.0632 15.4313 11.8956C15.3177 10.8801 14.7516 10.1092 14.2042 9.36354C13.6906 8.66398 13.2055 8.00319 13.1465 7.20079C13.1323 7.00715 12.9639 6.8618 12.7701 6.87595C12.5765 6.8902 12.431 7.05872 12.4453 7.25235C12.5191 8.25641 13.0876 9.03078 13.6375 9.77969Z" />
<path d="M16.4842 9.77929C16.9996 10.4814 17.4865 11.1446 17.5792 11.9734C17.7876 13.8347 16.5292 15.3624 16.5168 15.3772C16.3917 15.5256 16.4106 15.7474 16.559 15.8726C16.625 15.9282 16.7054 15.9553 16.7854 15.9553C16.8855 15.9553 16.9849 15.9129 17.0544 15.8304C17.1144 15.7592 18.5206 14.0628 18.278 11.8952C18.1643 10.8798 17.5983 10.1088 17.0509 9.36318C16.5373 8.66363 16.0522 8.00284 15.9932 7.20044C15.8146 4.77065 17.3268 3.57399 17.3913 3.52426C17.545 3.40656 17.5747 3.18667 17.4574 3.0324C17.34 2.87781 17.1194 2.84776 16.9648 2.96523C16.8879 3.02368 15.0845 4.42861 15.292 7.252C15.3658 8.25601 15.9344 9.03038 16.4842 9.77929Z"/>
<path d="M19.3309 9.77929C19.8463 10.4814 20.3332 11.1446 20.426 11.9734C20.6343 13.8347 19.3759 15.3624 19.3636 15.3772C19.2384 15.5256 19.2573 15.7474 19.4058 15.8726C19.4717 15.9282 19.5521 15.9553 19.6322 15.9553C19.7322 15.9553 19.8316 15.9129 19.9011 15.8304C19.9611 15.7592 21.3673 14.0628 21.1247 11.8952C21.0111 10.8798 20.4451 10.1088 19.8977 9.36318C19.384 8.66363 18.8989 8.00284 18.84 7.20044C18.6618 4.776 20.1669 3.57924 20.2375 3.52459C20.3916 3.40698 20.4214 3.18676 20.3041 3.0324C20.1866 2.87781 19.966 2.84776 19.8115 2.96523C19.7346 3.02368 17.9312 4.42861 18.1387 7.252C18.2125 8.25601 18.7811 9.03038 19.3309 9.77929Z" />
<path d="M22.8706 10.1277C22.7054 10.2297 22.6541 10.4463 22.7561 10.6115C23.0599 11.1037 23.2242 11.5364 23.2731 11.9734C23.4815 13.8348 22.2231 15.3624 22.2107 15.3772C22.0856 15.5257 22.1044 15.7474 22.2529 15.8726C22.3189 15.9282 22.3993 15.9554 22.4793 15.9554C22.5793 15.9554 22.6788 15.9129 22.7483 15.8304C22.8083 15.7592 24.2145 14.0628 23.9719 11.8952C23.911 11.3512 23.7148 10.8259 23.3544 10.2422C23.2524 10.0769 23.0358 10.0256 22.8706 10.1277Z" />
<path d="M21.3366 7.57783C21.3453 7.57783 21.354 7.5775 21.3627 7.57684C21.5564 7.56259 21.7018 7.39408 21.6876 7.20044C21.509 4.77168 23.0199 3.57502 23.0855 3.5243C23.2393 3.40665 23.269 3.18667 23.1518 3.0324C23.0343 2.87781 22.8137 2.84776 22.6592 2.96523C22.5823 3.02368 20.7788 4.42861 20.9863 7.252C20.9999 7.43688 21.1542 7.57783 21.3366 7.57783Z" />
<path d="M3.82812 14.1191C4.02228 14.1191 4.17968 13.9617 4.17968 13.7676C4.17968 13.5734 4.02228 13.416 3.82812 13.416C3.63396 13.416 3.47656 13.5734 3.47656 13.7676C3.47656 13.9617 3.63396 14.1191 3.82812 14.1191Z" />
</svg>
