<svg>
<path d="M20.9625 10.8768C20.2258 7.13933 16.9433 4.3335 13 4.3335C9.86917 4.3335 7.15 6.11016 5.79583 8.71016C2.535 9.05683 0 11.8193 0 15.1668C0 18.7527 2.91417 21.6668 6.5 21.6668H20.5833C23.5733 21.6668 26 19.2402 26 16.2502C26 13.3902 23.7792 11.0718 20.9625 10.8768ZM20.5833 19.5002H6.5C4.10583 19.5002 2.16667 17.561 2.16667 15.1668C2.16667 12.946 3.82417 11.0935 6.02333 10.866L7.1825 10.7468L7.72417 9.71766C8.75333 7.73516 10.7683 6.50016 13 6.50016C15.8383 6.50016 18.2867 8.51516 18.8392 11.2993L19.1642 12.9243L20.8217 13.0435C22.5117 13.1518 23.8333 14.571 23.8333 16.2502C23.8333 18.0377 22.3708 19.5002 20.5833 19.5002ZM14.5708 10.8335H11.4292V14.0835H8.66667L13 18.4168L17.3333 14.0835H14.5708V10.8335Z"/>
</svg>
