<svg>
<path d="M1.6 6.4C0.714667 6.4 0 7.11467 0 8C0 8.88533 0.714667 9.6 1.6 9.6C2.48533 9.6 3.2 8.88533 3.2 8C3.2 7.11467 2.48533 6.4 1.6 6.4ZM1.6 0C0.714667 0 0 0.714667 0 1.6C0 2.48533 0.714667 3.2 1.6 3.2C2.48533 3.2 3.2 2.48533 3.2 1.6C3.2 0.714667 2.48533 0 1.6 0ZM1.6 12.8C0.714667 12.8 0 13.5253 0 14.4C0 15.2747 0.725333 16 1.6 16C2.47467 16 3.2 15.2747 3.2 14.4C3.2 13.5253 2.48533 12.8 1.6 12.8Z"/>
<path d="M1.6 6.4C0.714667 6.4 0 7.11467 0 8C0 8.88533 0.714667 9.6 1.6 9.6C2.48533 9.6 3.2 8.88533 3.2 8C3.2 7.11467 2.48533 6.4 1.6 6.4ZM1.6 0C0.714667 0 0 0.714667 0 1.6C0 2.48533 0.714667 3.2 1.6 3.2C2.48533 3.2 3.2 2.48533 3.2 1.6C3.2 0.714667 2.48533 0 1.6 0ZM1.6 12.8C0.714667 12.8 0 13.5253 0 14.4C0 15.2747 0.725333 16 1.6 16C2.47467 16 3.2 15.2747 3.2 14.4C3.2 13.5253 2.48533 12.8 1.6 12.8Z"/>
<path d="M8 6.4C7.11467 6.4 6.4 7.11467 6.4 8C6.4 8.88533 7.11467 9.6 8 9.6C8.88533 9.6 9.6 8.88533 9.6 8C9.6 7.11467 8.88533 6.4 8 6.4ZM8 0C7.11467 0 6.4 0.714667 6.4 1.6C6.4 2.48533 7.11467 3.2 8 3.2C8.88533 3.2 9.6 2.48533 9.6 1.6C9.6 0.714667 8.88533 0 8 0ZM8 12.8C7.11467 12.8 6.4 13.5253 6.4 14.4C6.4 15.2747 7.12533 16 8 16C8.87467 16 9.6 15.2747 9.6 14.4C9.6 13.5253 8.88533 12.8 8 12.8Z"/>
<path d="M8 6.4C7.11467 6.4 6.4 7.11467 6.4 8C6.4 8.88533 7.11467 9.6 8 9.6C8.88533 9.6 9.6 8.88533 9.6 8C9.6 7.11467 8.88533 6.4 8 6.4ZM8 0C7.11467 0 6.4 0.714667 6.4 1.6C6.4 2.48533 7.11467 3.2 8 3.2C8.88533 3.2 9.6 2.48533 9.6 1.6C9.6 0.714667 8.88533 0 8 0ZM8 12.8C7.11467 12.8 6.4 13.5253 6.4 14.4C6.4 15.2747 7.12533 16 8 16C8.87467 16 9.6 15.2747 9.6 14.4C9.6 13.5253 8.88533 12.8 8 12.8Z"/>
<path d="M14.4 6.4C13.5147 6.4 12.8 7.11467 12.8 8C12.8 8.88533 13.5147 9.6 14.4 9.6C15.2853 9.6 16 8.88533 16 8C16 7.11467 15.2853 6.4 14.4 6.4ZM14.4 0C13.5147 0 12.8 0.714667 12.8 1.6C12.8 2.48533 13.5147 3.2 14.4 3.2C15.2853 3.2 16 2.48533 16 1.6C16 0.714667 15.2853 0 14.4 0ZM14.4 12.8C13.5147 12.8 12.8 13.5253 12.8 14.4C12.8 15.2747 13.5253 16 14.4 16C15.2747 16 16 15.2747 16 14.4C16 13.5253 15.2853 12.8 14.4 12.8Z"/>
<path d="M14.4 6.4C13.5147 6.4 12.8 7.11467 12.8 8C12.8 8.88533 13.5147 9.6 14.4 9.6C15.2853 9.6 16 8.88533 16 8C16 7.11467 15.2853 6.4 14.4 6.4ZM14.4 0C13.5147 0 12.8 0.714667 12.8 1.6C12.8 2.48533 13.5147 3.2 14.4 3.2C15.2853 3.2 16 2.48533 16 1.6C16 0.714667 15.2853 0 14.4 0ZM14.4 12.8C13.5147 12.8 12.8 13.5253 12.8 14.4C12.8 15.2747 13.5253 16 14.4 16C15.2747 16 16 15.2747 16 14.4C16 13.5253 15.2853 12.8 14.4 12.8Z"/>
</svg>
