<svg width="72" height="72" viewBox="0 0 72 72" fill="none" xmlns="http://www.w3.org/2000/svg">
<path d="M36 5.76C41.9809 5.76 47.8275 7.53354 52.8004 10.8564C57.7734 14.1792 61.6493 18.902 63.9381 24.4276C66.2269 29.9533 66.8258 36.0335 65.659 41.8995C64.4921 47.7655 61.612 53.1538 57.3829 57.3829C53.1538 61.612 47.7655 64.4921 41.8995 65.6589C36.0336 66.8258 29.9533 66.2269 24.4277 63.9381C18.902 61.6493 14.1792 57.7734 10.8564 52.8004C7.53356 47.8275 5.76002 41.9809 5.76002 36C5.76002 27.9798 8.946 20.2882 14.6171 14.6171C20.2882 8.94599 27.9799 5.76 36 5.76ZM36 0C28.8799 0 21.9197 2.11136 15.9995 6.06709C10.0793 10.0228 5.46511 15.6453 2.74035 22.2234C0.0155982 28.8015 -0.697322 36.0399 0.691746 43.0232C2.08081 50.0066 5.50948 56.4211 10.5442 61.4558C15.5789 66.4905 21.9934 69.9192 28.9768 71.3083C35.9601 72.6973 43.1985 71.9844 49.7766 69.2597C56.3547 66.5349 61.9772 61.9207 65.9329 56.0005C69.8886 50.0803 72 43.1201 72 36C72 26.4522 68.2072 17.2955 61.4558 10.5442C54.7045 3.79285 45.5478 0 36 0Z" fill="url(#paint0_linear_498_5972)"/>
<path d="M30.9509 52.1341C28.6471 52.1341 26.4827 51.2367 24.8558 49.6098L18.1122 42.8649C16.6455 41.3982 15.8049 39.3693 15.8049 37.2936C15.8049 32.9497 19.3387 29.4146 23.6838 29.4146C25.7892 29.4146 27.7673 30.2332 29.2551 31.7219L30.9512 33.418L42.7449 21.6244C44.2327 20.1353 46.2108 19.3171 48.3162 19.3171C52.6613 19.3171 56.1951 22.8522 56.1951 27.196C56.1951 29.2717 55.3545 31.3007 53.8878 32.7673L37.0454 49.6098C35.4197 51.2367 33.2544 52.1341 30.9509 52.1341ZM23.6835 34.4634C22.1231 34.4634 20.8533 35.7329 20.8533 37.2936C20.8533 38.0379 21.1553 38.7678 21.6817 39.2954L28.4265 46.0403C29.7749 47.3911 32.1279 47.3911 33.474 46.0403L50.3177 29.1978C50.844 28.6702 51.146 27.9407 51.146 27.196C51.146 25.6356 49.8766 24.3659 48.3159 24.3659C47.5592 24.3659 46.8492 24.6593 46.314 25.1942L32.7356 38.7725C31.7496 39.7586 30.1519 39.7586 29.1662 38.7725L25.6853 35.2917C25.1505 34.7569 24.4405 34.4634 23.6835 34.4634Z" fill="url(#paint1_linear_498_5972)"/>
<defs>
<linearGradient id="paint0_linear_498_5972" x1="0" y1="0" x2="78.8289" y2="8.47395" gradientUnits="userSpaceOnUse">
<stop stop-color="#127FFF"/>
<stop offset="1" stop-color="#69A6FF"/>
</linearGradient>
<linearGradient id="paint1_linear_498_5972" x1="0" y1="0" x2="78.8289" y2="8.47395" gradientUnits="userSpaceOnUse">
<stop stop-color="#127FFF"/>
<stop offset="1" stop-color="#69A6FF"/>
</linearGradient>
</defs>
</svg>
