<svg>
<path d="M1.45946 6.4C0.651892 6.4 0 7.11467 0 8C0 8.88533 0.651892 9.6 1.45946 9.6C2.26703 9.6 2.91892 8.88533 2.91892 8C2.91892 7.11467 2.26703 6.4 1.45946 6.4ZM1.45946 0C0.651892 0 0 0.714667 0 1.6C0 2.48533 0.651892 3.2 1.45946 3.2C2.26703 3.2 2.91892 2.48533 2.91892 1.6C2.91892 0.714667 2.26703 0 1.45946 0ZM1.45946 12.8C0.651892 12.8 0 13.5253 0 14.4C0 15.2747 0.661622 16 1.45946 16C2.2573 16 2.91892 15.2747 2.91892 14.4C2.91892 13.5253 2.26703 12.8 1.45946 12.8ZM4.37838 15.4667H18V13.3333H4.37838V15.4667ZM4.37838 9.06667H18V6.93333H4.37838V9.06667ZM4.37838 0.533333V2.66667H18V0.533333H4.37838Z" />
</svg>
