<svg width="260" height="260" viewBox="0 0 260 260" fill="none" xmlns="http://www.w3.org/2000/svg">
<rect x="1.5" y="1.5" width="257" height="257" rx="23.5" fill="url(#paint0_linear_1004_10059)" stroke="black" stroke-width="3"/>
<path fill-rule="evenodd" clip-rule="evenodd" d="M95.3055 79.8726C95.1939 80.3044 94.6956 81.9639 94.1978 83.56C93.7 85.1562 93.1086 87.3763 92.8826 88.4937C92.6565 89.611 92.3091 90.7864 92.1102 91.1056C91.9114 91.4248 91.4593 92.7308 91.1055 94.0077C90.7517 95.2847 90.2666 96.7868 90.0279 97.3451C89.622 98.2941 90.395 98.3609 101.796 98.3609C111.181 98.3609 113.994 98.5286 113.981 99.0864C113.972 99.4857 112.607 101.269 110.946 103.05C106.894 107.398 104.703 109.896 103.241 111.837C102.571 112.726 99.9691 115.71 97.4595 118.468C94.9499 121.226 92.1166 124.407 91.1627 125.537C90.2088 126.668 88.1918 128.948 86.68 130.605C85.1683 132.261 83.3478 134.368 82.6344 135.288C81.921 136.207 80.6214 137.668 79.7461 138.536C78.8709 139.403 78.1552 140.324 78.1552 140.583C78.1552 140.842 77.4395 141.699 76.5654 142.489C75.6913 143.278 73.4146 145.753 71.5069 147.987C69.5991 150.222 67.7133 152.259 67.3156 152.515C66.9184 152.77 66.5929 153.207 66.5929 153.486C66.5929 154.014 62.6421 158.564 60.38 160.64C59.1428 161.777 58.4941 161.826 46.6585 161.685L34.2354 161.536L33.6845 162.887C33.3821 163.631 32.5693 166.198 31.8784 168.592C31.1882 170.987 30.1314 174.491 29.5301 176.379C28.9295 178.267 28.4375 180.03 28.4375 180.297C28.4375 180.563 41.6699 180.781 57.8426 180.781H87.2477L88.1935 178.295C88.7138 176.928 89.1393 175.535 89.1393 175.2C89.1393 174.446 91.261 167.331 92.3675 164.373C92.8178 163.169 93.1861 162.028 93.1861 161.836C93.1861 161.645 90.7147 161.597 87.694 161.73C84.6734 161.862 82.202 161.761 82.202 161.504C82.202 161.247 82.8315 160.321 83.6016 159.445C84.3716 158.571 85.7597 156.976 86.6869 155.902L88.3727 153.95L111.736 153.775C124.586 153.678 136.566 153.738 138.36 153.908C141.619 154.217 141.622 154.219 141.972 156.423C142.166 157.636 142.565 158.715 142.86 158.821C143.155 158.928 143.584 159.772 143.812 160.696L144.228 162.377L137.498 162.079L130.768 161.78L129.671 164.171C129.067 165.485 128.118 168.128 127.561 170.043C127.005 171.959 126.197 174.511 125.766 175.714C125.335 176.918 124.982 178.55 124.982 179.342V180.781H204.169H231.562V161.488V160.466H204.169C204.169 160.466 202.704 157.201 200.994 152.921C200.165 150.846 199.112 148.325 198.656 147.319C198.198 146.313 197.824 145.072 197.824 144.562C197.824 144.051 197.576 143.634 197.272 143.634C196.969 143.634 196.55 142.72 196.341 141.603C196.132 140.485 195.758 139.571 195.51 139.571C195.262 139.571 194.882 138.862 194.665 137.995C194.318 136.606 193.114 133.615 191.445 129.994C191.151 129.356 189.467 125.177 187.702 120.707C185.938 116.238 184.256 112.059 183.964 111.42C183.673 110.782 182.884 108.954 182.212 107.357C181.539 105.761 180.644 103.672 180.221 102.714C178.266 98.2819 177.59 96.5273 177.587 95.8743C177.585 95.486 177.219 94.468 176.774 93.6113C176.329 92.7551 175.778 91.1984 175.549 90.1519C174.863 87.0165 173.205 83.6837 171.26 81.5286L169.425 79.4971L132.467 79.2922C101.762 79.1221 95.4737 79.2208 95.3055 79.8726ZM126.154 118.395C125.845 118.203 125.315 117.013 124.976 115.749C124.637 114.486 124.175 113.466 123.948 113.483C123.722 113.5 122.626 114.587 121.514 115.9C120.401 117.211 118.197 119.707 116.616 121.444C115.035 123.182 113.214 125.318 112.569 126.19C111.924 127.063 110.161 129.014 108.651 130.527C107.14 132.04 105.905 133.518 105.905 133.813C105.905 134.413 124.711 134.544 129.418 133.976L132.408 133.616L131.521 131.515C131.034 130.359 130.29 128.63 129.867 127.672C127.191 121.604 126.717 120.392 126.717 119.613C126.717 119.135 126.463 118.587 126.154 118.395Z" fill="#1C1C1C"/>
<defs>
<linearGradient id="paint0_linear_1004_10059" x1="0" y1="0" x2="260" y2="260" gradientUnits="userSpaceOnUse">
<stop stop-color="#F9BC6B"/>
<stop offset="0.15625" stop-color="#F1D232"/>
<stop offset="0.328125" stop-color="#E2DC6A"/>
<stop offset="0.510417" stop-color="#D4E28B"/>
<stop offset="0.6875" stop-color="#C3DDB8"/>
<stop offset="0.822917" stop-color="#ADD9DB"/>
<stop offset="0.916667" stop-color="#AAD7F4"/>
<stop offset="1" stop-color="#CBCFE8"/>
</linearGradient>
</defs>
</svg>
