<?xml version="1.0" standalone="no"?>
<!DOCTYPE svg PUBLIC "-//W3C//DTD SVG 20010904//EN"
 "http://www.w3.org/TR/2001/REC-SVG-20010904/DTD/svg10.dtd">
<svg version="1.0" xmlns="http://www.w3.org/2000/svg"
 width="700.000000pt" height="700.000000pt" viewBox="0 0 700.000000 700.000000"
 preserveAspectRatio="xMidYMid meet">
<metadata>
Created by potrace 1.14, written by Peter Selinger 2001-2017
</metadata>
<g transform="translate(0.000000,700.000000) scale(0.100000,-0.100000)"
fill="#000000" stroke="none">
<path d="M535 6985 c-235 -51 -426 -223 -501 -450 l-29 -90 0 -2945 c0 -2828
1 -2947 18 -3004 57 -182 193 -352 337 -418 78 -36 130 -57 130 -54 0 2 21 -2
46 -10 40 -12 491 -14 2978 -11 1612 1 2944 6 2961 10 264 71 456 269 511 526
21 103 20 5837 -1 5929 -56 238 -220 419 -451 500 l-79 27 -2930 2 c-2388 1
-2941 -1 -2990 -12z"/>
</g>
</svg>
