<svg width="34" height="22" viewBox="0 0 34 22" fill="none" xmlns="http://www.w3.org/2000/svg">
<path d="M4 0.5H30C31.933 0.5 33.5 2.067 33.5 4V18C33.5 19.933 31.933 21.5 30 21.5H4C2.067 21.5 0.5 19.933 0.5 18V4C0.5 2.067 2.067 0.5 4 0.5Z" fill="white" stroke="#EEEEEE"/>
<path fill-rule="evenodd" clip-rule="evenodd" d="M15.0897 10.8527C15.0897 9.01576 15.9384 7.38029 17.2598 6.3219C16.2854 5.54145 15.0545 5.07422 13.7149 5.07422C10.5587 5.07422 8 7.66135 8 10.8527C8 14.044 10.5587 16.6311 13.7149 16.6311C15.0545 16.6311 16.2854 16.1639 17.2598 15.3834C15.9384 14.3251 15.0897 12.6896 15.0897 10.8527" fill="#EB001B"/>
<path fill-rule="evenodd" clip-rule="evenodd" d="M15.0896 10.853C15.0896 12.69 15.9383 14.3254 17.2597 15.3838C18.5811 14.3254 19.4297 12.69 19.4297 10.853C19.4297 9.01612 18.5811 7.38066 17.2597 6.32227C15.9383 7.38066 15.0896 9.01612 15.0896 10.853" fill="#FF5E00"/>
<path fill-rule="evenodd" clip-rule="evenodd" d="M20.8046 5.07422C19.465 5.07422 18.2341 5.54145 17.2598 6.3219C18.5811 7.38037 19.4298 9.01576 19.4298 10.8527C19.4298 12.6896 18.5811 14.3251 17.2598 15.3834C18.2341 16.1639 19.465 16.6311 20.8046 16.6311C23.9608 16.6311 26.5195 14.044 26.5195 10.8527C26.5195 7.66135 23.9608 5.07422 20.8046 5.07422" fill="#F79E1C"/>
</svg>
