<svg width="34" height="22" viewBox="0 0 34 22" fill="none" xmlns="http://www.w3.org/2000/svg">
<path d="M0.5 4C0.5 2.067 2.067 0.5 4 0.5H30C31.933 0.5 33.5 2.067 33.5 4V18C33.5 19.933 31.933 21.5 30 21.5H4C2.067 21.5 0.5 19.933 0.5 18V4Z" fill="white" stroke="#EEEEEE"/>
<g clip-path="url(#clip0_185_3873)">
<path d="M10.2495 8.05L9.35838 11.725H9.20592L8.31478 8.05C8.16232 7.42812 7.6839 7 7.13713 7H5V15H7.13976V10.2719H7.29223L8.5172 15H10.0471L11.2694 10.2719H11.4219V15H13.5617V7H11.4245C10.8804 7 10.402 7.42812 10.2495 8.05ZM22.097 15H24.2499V12.6344H26.416C27.549 12.6344 28.5138 11.8719 28.887 10.8H22.097V15ZM18.2828 7.84375L16.7766 11.7281H16.6241V7H14.4843V15H16.3008C16.7792 15 17.2129 14.6687 17.4127 14.1563L18.9189 10.275H19.0714V15H21.2112V7H19.3947C18.9163 7 18.4826 7.33125 18.2828 7.84375Z" fill="#006848"/>
<path d="M26.6288 7C27.2466 7 27.8065 7.28125 28.2297 7.74375C28.7029 8.25625 28.9999 8.99376 28.9999 9.81563C28.9999 9.98437 28.9842 10.15 28.9605 10.3125H24.9859C23.64 10.3125 22.4992 9.2625 22.1154 7.8125C22.1101 7.79687 22.1075 7.77812 22.1022 7.75937C22.0917 7.71562 22.0838 7.66875 22.0733 7.625C22.0339 7.42187 22.0076 7.21562 21.9971 7H26.6288Z" fill="url(#paint0_linear_185_3873)"/>
</g>
<defs>
<linearGradient id="paint0_linear_185_3873" x1="28.9999" y1="17.3599" x2="22.0399" y2="17.3599" gradientUnits="userSpaceOnUse">
<stop stop-color="#1E5CD8"/>
<stop offset="1" stop-color="#02AFFF"/>
</linearGradient>
<clipPath id="clip0_185_3873">
<rect width="24" height="8" fill="white" transform="translate(5 7)"/>
</clipPath>
</defs>
</svg>
