<svg width="50" height="50" viewBox="0 0 50 50" fill="none" xmlns="http://www.w3.org/2000/svg">
<path d="M24.9994 4.16699C13.4993 4.16699 4.16602 13.5003 4.16602 25.0003C4.16602 36.5003 13.4993 45.8337 24.9994 45.8337C36.4994 45.8337 45.8327 36.5003 45.8327 25.0003C45.8327 13.5003 36.4994 4.16699 24.9994 4.16699ZM14.7285 38.0837C15.6244 36.2087 21.0827 34.3753 24.9994 34.3753C28.916 34.3753 34.3952 36.2087 35.2702 38.0837C32.4369 40.3337 28.8744 41.667 24.9994 41.667C21.1243 41.667 17.5619 40.3337 14.7285 38.0837ZM38.2494 35.0628C35.2702 31.4378 28.041 30.2087 24.9994 30.2087C21.9577 30.2087 14.7285 31.4378 11.7493 35.0628C9.62435 32.2712 8.33268 28.792 8.33268 25.0003C8.33268 15.8128 15.8119 8.33366 24.9994 8.33366C34.1869 8.33366 41.666 15.8128 41.666 25.0003C41.666 28.792 40.3744 32.2712 38.2494 35.0628ZM24.9994 12.5003C20.9577 12.5003 17.7077 15.7503 17.7077 19.792C17.7077 23.8337 20.9577 27.0837 24.9994 27.0837C29.041 27.0837 32.291 23.8337 32.291 19.792C32.291 15.7503 29.041 12.5003 24.9994 12.5003ZM24.9994 22.917C23.2702 22.917 21.8743 21.5212 21.8743 19.792C21.8743 18.0628 23.2702 16.667 24.9994 16.667C26.7285 16.667 28.1244 18.0628 28.1244 19.792C28.1244 21.5212 26.7285 22.917 24.9994 22.917Z" fill="#ACACAC"/>
</svg>
