<svg width="50" height="50" viewBox="0 0 50 50" fill="none" xmlns="http://www.w3.org/2000/svg">
<path d="M41.666 4.16699H8.33268C6.24935 4.16699 4.16602 6.04199 4.16602 8.33366V14.6045C4.16602 16.1045 5.06185 17.3962 6.24935 18.1253V41.667C6.24935 43.9587 8.54102 45.8337 10.416 45.8337H39.5827C41.4577 45.8337 43.7493 43.9587 43.7493 41.667V18.1253C44.9368 17.3962 45.8327 16.1045 45.8327 14.6045V8.33366C45.8327 6.04199 43.7493 4.16699 41.666 4.16699ZM39.5827 41.667H10.416V18.7503H39.5827V41.667ZM41.666 14.5837H8.33268V8.33366H41.666V14.5837Z" fill="#ACACAC"/>
<path d="M31.2493 25.0003H18.7493V29.167H31.2493V25.0003Z" fill="#ACACAC"/>
</svg>
