<svg width="40" height="10" viewBox="0 0 40 10" fill="none" xmlns="http://www.w3.org/2000/svg">
<g clip-path="url(#clip0_674_10481)">
<path fill-rule="evenodd" clip-rule="evenodd" d="M40 0.352488C40 0.352488 39.2564 0.264648 38.3776 0.264648C37.5213 0.264648 36.8 0.352488 36.8 0.352488V3.09748H40V0.352488Z" fill="#E4003E"/>
<path fill-rule="evenodd" clip-rule="evenodd" d="M40 6.83008H36.8V9.61899C36.8 9.61899 37.7016 9.70681 38.4225 9.70681C39.1437 9.70681 40 9.59702 40 9.59702V6.83008Z" fill="#E4003E"/>
<path fill-rule="evenodd" clip-rule="evenodd" d="M34.8844 0.352539H30.9407L28.1914 3.7124H26.907V0.352539H23.5042V9.64155H26.907V6.14995H28.1464L30.9182 9.64155H35.1324L31.0084 4.70058L34.8844 0.352539Z" fill="#242265"/>
<path fill-rule="evenodd" clip-rule="evenodd" d="M10.7492 0.352539H0V9.64155H3.44788V2.98772H7.30135V9.64155H10.7492V0.352539Z" fill="#242265"/>
<path fill-rule="evenodd" clip-rule="evenodd" d="M12.4169 2.81141L11.9211 0.351911C11.9211 0.351911 15.1436 0.110352 17.1493 0.110352C19.1549 0.110352 21.5662 0.351911 21.5662 0.351911C21.5662 0.351911 22.3098 2.24046 22.3098 4.89761C22.3098 7.55474 21.5436 9.64095 21.5436 9.64095C21.5436 9.64095 19.2451 9.88249 17.1267 9.88249C15.0084 9.88249 11.9211 9.64095 11.9211 9.64095L12.4169 7.18143C12.4169 7.18143 14.5803 7.33516 16.4282 7.33516C18.276 7.33516 18.9971 7.18143 18.9971 7.18143C18.9971 7.18143 19.0873 6.72028 19.1324 6.19322H14.7155V3.82158H19.1549C19.1098 3.2067 19.0197 2.83337 19.0197 2.83337C19.0197 2.83337 17.5098 2.67966 16.2253 2.67966C14.9183 2.6577 12.4169 2.81141 12.4169 2.81141Z" fill="#242265"/>
</g>
<defs>
<clipPath id="clip0_674_10481">
<rect width="40" height="10" fill="white"/>
</clipPath>
</defs>
</svg>
