<svg width="24" height="24" viewBox="0 0 24 24" fill="none" xmlns="http://www.w3.org/2000/svg">
<path d="M18.751 12.8203C19.9434 12.8209 21.0867 13.2951 21.9296 14.1386C22.7724 14.9821 23.2457 16.1258 23.2454 17.3182C23.2451 18.5106 22.7712 19.6541 21.9279 20.4971C21.0847 21.3401 19.9411 21.8137 18.7487 21.8137C17.5563 21.8137 16.4127 21.3401 15.5694 20.4971C14.7262 19.6541 14.2523 18.5106 14.252 17.3182C14.2516 16.1258 14.7249 14.9821 15.5678 14.1386C16.4106 13.2951 17.5539 12.8209 18.7463 12.8203H18.751ZM20.8173 17.6531C21.0825 17.2727 21.2249 16.8203 21.2255 16.3566C21.2245 16.044 21.1596 15.7349 21.035 15.4482C20.9104 15.1615 20.7287 14.9033 20.5009 14.6892C19.5343 13.7686 17.9677 13.7686 17.0012 14.6892C16.171 15.4805 16.0384 16.7189 16.6848 17.6531L18.751 20.6395L20.8173 17.6531Z" fill="#FFD8AE"/>
<path d="M21.2254 16.3559C21.2248 16.8196 21.0824 17.272 20.8171 17.6524L18.7509 20.6388L16.6846 17.6524C16.0382 16.7182 16.1709 15.4798 17.001 14.6885C17.9676 13.7679 19.5342 13.7679 20.5007 14.6885C20.7285 14.9026 20.9103 15.1608 21.0349 15.4475C21.1595 15.7342 21.2243 16.0433 21.2254 16.3559ZM19.9917 16.347C19.9917 16.1016 19.9189 15.8617 19.7826 15.6576C19.6462 15.4536 19.4524 15.2945 19.2257 15.2006C18.999 15.1067 18.7495 15.0821 18.5088 15.13C18.2681 15.1779 18.0471 15.2961 17.8735 15.4696C17.7 15.6431 17.5818 15.8642 17.534 16.1049C17.4861 16.3456 17.5106 16.5951 17.6046 16.8218C17.6985 17.0485 17.8575 17.2423 18.0616 17.3786C18.2656 17.515 18.5055 17.5877 18.7509 17.5877C18.9138 17.5877 19.0752 17.5557 19.2257 17.4933C19.3763 17.4309 19.5131 17.3396 19.6283 17.2243C19.7435 17.1091 19.8349 16.9723 19.8972 16.8218C19.9596 16.6712 19.9917 16.5099 19.9917 16.347Z" fill="#EB001B"/>
<path d="M18.751 17.588C19.4363 17.588 19.9918 17.0325 19.9918 16.3472C19.9918 15.662 19.4363 15.1064 18.751 15.1064C18.0658 15.1064 17.5103 15.662 17.5103 16.3472C17.5103 17.0325 18.0658 17.588 18.751 17.588Z" fill="#FFD8AE"/>
<path d="M18.7462 6.80516V12.8202C17.9661 12.8212 17.1998 13.025 16.5222 13.4115C15.8447 13.798 15.2793 14.354 14.8814 15.0249C14.4835 15.6958 14.2668 16.4586 14.2526 17.2385C14.2383 18.0184 14.4271 18.7886 14.8002 19.4736L9.74805 22.3906V11.9994L18.7457 6.80469L18.7462 6.80516Z" fill="#FFBD48"/>
<path d="M9.74808 11.9994L5.16089 9.35094L14.1581 4.15625L18.7457 6.80469L9.74808 11.9994Z" fill="#FFBD48"/>
<path d="M14.1581 4.15563L5.16096 9.35031L0.750488 6.80406L9.74815 1.60938L14.1581 4.15563Z" fill="#FFBD48"/>
<path d="M9.74813 11.9994V22.3906L0.75 17.1955V6.80516L0.750469 6.80469L5.16094 9.35094L9.74813 11.9994Z" fill="#FFBD48"/>
<path d="M19.0275 12.5465V6.80457C19.0273 6.72978 18.9975 6.65811 18.9446 6.60525C18.9273 6.58786 18.9077 6.57282 18.8864 6.56054L9.88875 1.36585C9.84601 1.34114 9.7975 1.32812 9.74813 1.32812C9.69875 1.32812 9.65025 1.34114 9.6075 1.36585L0.609844 6.56054C0.588408 6.57299 0.56868 6.58818 0.551156 6.60572C0.498408 6.65846 0.468766 6.72998 0.46875 6.80457V17.1949C0.468718 17.2443 0.481699 17.2928 0.506385 17.3356C0.531072 17.3784 0.566593 17.4139 0.609375 17.4386L9.6075 22.6338C9.65026 22.6585 9.69876 22.6715 9.74813 22.6715C9.7975 22.6715 9.846 22.6585 9.88875 22.6338L14.6995 19.856C15.1348 20.5511 15.7416 21.1225 16.4616 21.5152C17.1815 21.908 17.9904 22.109 18.8105 22.0988C19.6305 22.0886 20.4342 21.8675 21.1441 21.457C21.8541 21.0464 22.4465 20.4601 22.8643 19.7544C23.2822 19.0487 23.5114 18.2473 23.5301 17.4274C23.5487 16.6075 23.3561 15.7966 22.9707 15.0726C22.5853 14.3487 22.0202 13.736 21.3296 13.2936C20.639 12.8512 19.8463 12.594 19.0275 12.5465ZM9.74813 11.6741L5.72344 9.3504L14.1583 4.48032L18.1833 6.8041L9.74813 11.6741ZM10.0294 12.1612L18.465 7.29089V12.547C17.6847 12.5939 16.9277 12.8314 16.2605 13.2387C15.5933 13.6461 15.0361 14.2108 14.6378 14.8835C14.2395 15.5561 14.0122 16.3162 13.9758 17.097C13.9394 17.8779 14.095 18.6558 14.4291 19.3626L10.0294 21.9029V12.1612ZM9.74813 1.93421L13.5958 4.15557L5.16094 9.02565L1.31297 6.8041L9.74813 1.93421ZM1.03125 7.29099L9.46688 12.1613V21.9029L1.03125 17.0325V7.29099ZM18.7509 21.536C17.6324 21.5366 16.5594 21.0928 15.768 20.3022C14.9767 19.5117 14.5317 18.4392 14.5312 17.3206C14.5306 16.202 14.9744 15.129 15.7649 14.3377C16.5554 13.5463 17.628 13.1014 18.7465 13.1008L18.7463 12.8196L18.7509 13.1008C19.8695 13.1008 20.9423 13.5452 21.7332 14.3361C22.5242 15.1271 22.9685 16.1998 22.9685 17.3184C22.9685 18.437 22.5242 19.5097 21.7332 20.3007C20.9423 21.0916 19.8695 21.536 18.7509 21.536Z" fill="#1C1C1C"/>
<path d="M16.8071 14.4854C16.3592 14.9056 16.0771 15.4727 16.0122 16.0834C15.9472 16.6941 16.1038 17.3079 16.4534 17.8128L18.5196 20.7992C18.5454 20.8366 18.58 20.8672 18.6203 20.8883C18.6606 20.9094 18.7054 20.9205 18.7509 20.9205C18.7964 20.9205 18.8412 20.9094 18.8814 20.8883C18.9217 20.8672 18.9563 20.8366 18.9822 20.7992L21.0484 17.8128C21.3997 17.3084 21.5573 16.6943 21.4924 16.0831C21.4274 15.4719 21.1442 14.9046 20.6947 14.4853C19.6229 13.4646 17.879 13.4645 16.8071 14.4854ZM20.5858 17.4929L18.7509 20.1451L16.9159 17.4929C16.6431 17.098 16.5212 16.6182 16.5725 16.1409C16.6237 15.6636 16.8447 15.2206 17.1951 14.8925C18.0529 14.0753 19.4489 14.0753 20.3068 14.8925C20.6592 15.2193 20.8815 15.6625 20.9328 16.1404C20.9841 16.6183 20.8609 17.0986 20.5859 17.4928L20.5858 17.4929Z" fill="#1C1C1C"/>
<path d="M18.751 14.8252C18.45 14.8252 18.1557 14.9145 17.9054 15.0817C17.6551 15.2489 17.4601 15.4867 17.3449 15.7648C17.2297 16.0429 17.1995 16.3489 17.2582 16.6442C17.317 16.9394 17.4619 17.2106 17.6748 17.4235C17.8877 17.6363 18.1589 17.7813 18.4541 17.84C18.7493 17.8987 19.0554 17.8686 19.3335 17.7534C19.6116 17.6382 19.8493 17.4431 20.0166 17.1928C20.1838 16.9425 20.2731 16.6483 20.2731 16.3472C20.2726 15.9437 20.1121 15.5568 19.8268 15.2715C19.5414 14.9861 19.1546 14.8256 18.751 14.8252ZM18.751 17.3068C18.5613 17.3068 18.3757 17.2505 18.2179 17.145C18.0602 17.0396 17.9372 16.8898 17.8645 16.7144C17.7919 16.5391 17.7729 16.3462 17.8099 16.16C17.847 15.9739 17.9384 15.8029 18.0725 15.6687C18.2067 15.5345 18.3777 15.4432 18.5638 15.4061C18.75 15.3691 18.9429 15.3881 19.1182 15.4607C19.2936 15.5334 19.4434 15.6563 19.5489 15.8141C19.6543 15.9719 19.7106 16.1574 19.7106 16.3472C19.7103 16.6016 19.6091 16.8455 19.4292 17.0254C19.2493 17.2053 19.0054 17.3065 18.751 17.3068Z" fill="#1C1C1C"/>
</svg>
