<svg width="22" height="22" viewBox="0 0 22 22" fill="none" xmlns="http://www.w3.org/2000/svg">
<path d="M10.9999 1.83301C5.93992 1.83301 1.83325 5.93967 1.83325 10.9997C1.83325 16.0597 5.93992 20.1663 10.9999 20.1663C16.0599 20.1663 20.1666 16.0597 20.1666 10.9997C20.1666 5.93967 16.0599 1.83301 10.9999 1.83301ZM6.48075 16.7563C6.87492 15.9313 9.27659 15.1247 10.9999 15.1247C12.7233 15.1247 15.1341 15.9313 15.5191 16.7563C14.2724 17.7463 12.7049 18.333 10.9999 18.333C9.29492 18.333 7.72742 17.7463 6.48075 16.7563ZM16.8299 15.4272C15.5191 13.8322 12.3383 13.2913 10.9999 13.2913C9.66159 13.2913 6.48075 13.8322 5.16992 15.4272C4.23492 14.1988 3.66659 12.668 3.66659 10.9997C3.66659 6.95717 6.95742 3.66634 10.9999 3.66634C15.0424 3.66634 18.3333 6.95717 18.3333 10.9997C18.3333 12.668 17.7649 14.1988 16.8299 15.4272ZM10.9999 5.49967C9.22159 5.49967 7.79159 6.92967 7.79159 8.70801C7.79159 10.4863 9.22159 11.9163 10.9999 11.9163C12.7783 11.9163 14.2083 10.4863 14.2083 8.70801C14.2083 6.92967 12.7783 5.49967 10.9999 5.49967ZM10.9999 10.083C10.2391 10.083 9.62492 9.46884 9.62492 8.70801C9.62492 7.94717 10.2391 7.33301 10.9999 7.33301C11.7608 7.33301 12.3749 7.94717 12.3749 8.70801C12.3749 9.46884 11.7608 10.083 10.9999 10.083Z" fill="#ACACAC"/>
</svg>
