<svg>
<path d="M15.5833 6.41699H11.9166V8.25033H15.5833C17.0958 8.25033 18.3333 9.48783 18.3333 11.0003C18.3333 12.5128 17.0958 13.7503 15.5833 13.7503H11.9166V15.5837H15.5833C18.1133 15.5837 20.1666 13.5303 20.1666 11.0003C20.1666 8.47033 18.1133 6.41699 15.5833 6.41699ZM10.0833 13.7503H6.41659C4.90409 13.7503 3.66659 12.5128 3.66659 11.0003C3.66659 9.48783 4.90409 8.25033 6.41659 8.25033H10.0833V6.41699H6.41659C3.88659 6.41699 1.83325 8.47033 1.83325 11.0003C1.83325 13.5303 3.88659 15.5837 6.41659 15.5837H10.0833V13.7503ZM7.33325 10.0837H14.6666V11.917H7.33325V10.0837Z"/>
</svg>
