<svg>
<path d="M18.3333 15.5837H3.66659V4.58366H12.9249C12.8516 4.22616 12.7599 3.56616 12.9249 2.75033H3.66659C2.65825 2.75033 1.83325 3.57533 1.83325 4.58366V21.0837L5.49992 17.417H18.3333C19.3416 17.417 20.1666 16.592 20.1666 15.5837V7.31533C19.6349 7.71866 19.0116 8.02116 18.3333 8.15866V15.5837Z"/>
<path d="M17.4166 6.41699C18.9354 6.41699 20.1666 5.18577 20.1666 3.66699C20.1666 2.14821 18.9354 0.916992 17.4166 0.916992C15.8978 0.916992 14.6666 2.14821 14.6666 3.66699C14.6666 5.18577 15.8978 6.41699 17.4166 6.41699Z"/>
<path d="M12.8333 11.917H5.49992V13.7503H12.8333V11.917Z"/>
<path d="M16.4999 9.16699H5.49992V11.0003H16.4999V9.16699Z"/>
<path d="M5.49992 8.25033H16.4999V8.15866C15.3908 7.92949 14.4374 7.28783 13.7774 6.41699H5.49992V8.25033Z" />
</svg>
